<svg width="65" height="65" viewBox="0 0 65 65" fill="none" xmlns="http://www.w3.org/2000/svg">
<circle cx="32.5" cy="32.5" r="32.5" fill="#F5F5F5"/>
<g clip-path="url(#clip0_6_940)">
<path d="M45.5693 48.36C42.9019 48.36 40.7418 47.5513 40.7418 46.5498V48.9635C40.7418 49.965 42.9019 50.7738 45.5693 50.7738C48.2364 50.7738 50.3967 49.965 50.3967 48.9635V46.5498C50.3967 47.5513 48.2364 48.36 45.5693 48.36Z" fill="#FF9811"/>
<path d="M45.5693 43.5326C42.9019 43.5326 40.7418 42.7238 40.7418 41.7223V44.136C40.7418 45.1375 42.9019 45.9463 45.5693 45.9463C48.2364 45.9463 50.3967 45.1375 50.3967 44.136V41.7223C50.3967 42.7238 48.2364 43.5326 45.5693 43.5326Z" fill="#FFA733"/>
<path d="M45.5693 41.1189C42.9019 41.1189 40.7418 40.3101 40.7418 39.3086V41.7223C40.7418 42.7238 42.9019 43.5326 45.5693 43.5326C48.2364 43.5326 50.3967 42.7238 50.3967 41.7223V39.3086C50.3967 40.3101 48.2364 41.1189 45.5693 41.1189Z" fill="#FFB655"/>
<path d="M45.5693 45.9463C42.9019 45.9463 40.7418 45.1375 40.7418 44.136V46.5498C40.7418 47.5513 42.9019 48.3601 45.5693 48.3601C48.2364 48.3601 50.3967 47.5513 50.3967 46.5498V44.136C50.3967 45.1375 48.2364 45.9463 45.5693 45.9463Z" fill="#FFB655"/>
<path d="M45.5693 33.8777C42.9019 33.8777 40.7418 33.0689 40.7418 32.0675V34.4812C40.7418 35.4827 42.9019 36.2915 45.5693 36.2915C48.2364 36.2915 50.3967 35.4827 50.3967 34.4812V32.0675C50.3967 33.0689 48.2364 33.8777 45.5693 33.8777Z" fill="#FFC477"/>
<path d="M45.5693 38.7052C42.9019 38.7052 40.7418 37.8964 40.7418 36.8949V39.3086C40.7418 40.3101 42.9019 41.1189 45.5693 41.1189C48.2364 41.1189 50.3967 40.3101 50.3967 39.3086V36.8949C50.3967 37.8964 48.2364 38.7052 45.5693 38.7052Z" fill="#FFC477"/>
<path d="M45.5693 36.2915C42.9019 36.2915 40.7418 35.4827 40.7418 34.4812V36.8949C40.7418 37.8964 42.9019 38.7052 45.5693 38.7052C48.2364 38.7052 50.3967 37.8964 50.3967 36.8949V34.4812C50.3967 35.4827 48.2364 36.2915 45.5693 36.2915Z" fill="#FFB655"/>
<path d="M45.5693 31.464C42.9033 31.464 40.7418 30.6535 40.7418 29.6537V32.0675C40.7418 33.0689 42.9019 33.8777 45.5693 33.8777C48.2364 33.8777 50.3967 33.0689 50.3967 32.0675V29.6537C50.3967 30.6535 48.2352 31.464 45.5693 31.464Z" fill="#FFB655"/>
<path d="M20.2252 50.7738C22.8923 50.7738 25.0526 49.965 25.0526 48.9635V46.5498C25.0526 47.5513 22.8923 48.36 20.2252 48.36C17.5578 48.36 15.3978 47.5513 15.3978 46.5498V48.9635C15.3978 49.965 17.5578 50.7738 20.2252 50.7738Z" fill="#FF6243"/>
<path d="M32.8972 45.9463C30.2298 45.9463 28.0698 45.1375 28.0698 44.136V46.5498C28.0698 47.5513 30.2298 48.3601 32.8972 48.3601C35.5643 48.3601 37.7246 47.5513 37.7246 46.5498V44.136C37.7246 45.1375 35.5643 45.9463 32.8972 45.9463Z" fill="#FFA733"/>
<path d="M32.8972 43.5326C30.2298 43.5326 28.0698 42.7238 28.0698 41.7223V44.136C28.0698 45.1375 30.2298 45.9463 32.8972 45.9463C35.5643 45.9463 37.7246 45.1375 37.7246 44.136V41.7223C37.7246 42.7238 35.5643 43.5326 32.8972 43.5326Z" fill="#FF9811"/>
<path d="M32.8972 38.7052C30.2313 38.7052 28.0698 37.8946 28.0698 36.8949V39.3086C28.0698 40.3101 30.2298 41.1189 32.8972 41.1189C35.5643 41.1189 37.7246 40.3101 37.7246 39.3086V36.8949C37.7246 37.8946 35.5631 38.7052 32.8972 38.7052Z" fill="#FFB655"/>
<path d="M32.8972 41.1189C30.2298 41.1189 28.0698 40.3101 28.0698 39.3086V41.7223C28.0698 42.7238 30.2298 43.5326 32.8972 43.5326C35.5643 43.5326 37.7246 42.7238 37.7246 41.7223V39.3086C37.7246 40.3101 35.5643 41.1189 32.8972 41.1189Z" fill="#FFA733"/>
<path d="M20.2252 48.3601C22.8923 48.3601 25.0526 47.5513 25.0526 46.5498V44.136C25.0526 45.1375 22.8923 45.9463 20.2252 45.9463C17.5578 45.9463 15.3978 45.1375 15.3978 44.136V46.5498C15.3978 47.5513 17.5578 48.3601 20.2252 48.3601Z" fill="#FF9478"/>
<path d="M20.2252 45.9463C22.8923 45.9463 25.0526 45.1375 25.0526 44.136V41.7223C25.0526 42.7221 22.8911 43.5326 20.2252 43.5326C17.5593 43.5326 15.3978 42.7221 15.3978 41.7223V44.136C15.3978 45.1375 17.5578 45.9463 20.2252 45.9463Z" fill="#FF7956"/>
<path d="M32.8972 48.36C30.2298 48.36 28.0698 47.5513 28.0698 46.5498V48.9635C28.0698 49.965 30.2298 50.7738 32.8972 50.7738C35.5643 50.7738 37.7246 49.965 37.7246 48.9635V46.5498C37.7246 47.5513 35.5643 48.36 32.8972 48.36Z" fill="#FF9811"/>
<path d="M25.0526 41.7223C25.0526 40.7226 22.8911 39.912 20.2252 39.912C17.559 39.912 15.3978 40.7226 15.3978 41.7223C15.3978 42.7221 17.559 43.5326 20.2252 43.5326C22.8911 43.5326 25.0526 42.7221 25.0526 41.7223Z" fill="#FF9478"/>
<path d="M37.7246 36.8949C37.7246 35.8952 35.5631 35.0846 32.8972 35.0846C30.231 35.0846 28.0698 35.8952 28.0698 36.8949C28.0698 37.8946 30.231 38.7052 32.8972 38.7052C35.5631 38.7052 37.7246 37.8946 37.7246 36.8949Z" fill="#FFA733"/>
<path d="M50.3967 29.6537C50.3967 28.654 48.2352 27.8434 45.5693 27.8434C42.903 27.8434 40.7418 28.654 40.7418 29.6537C40.7418 30.6535 42.903 31.464 45.5693 31.464C48.2352 31.464 50.3967 30.6535 50.3967 29.6537Z" fill="#FFA733"/>
<path d="M44.3624 15.1714V16.3783H48.94L37.4748 27.8434H24.8258L15 36.4405L15.7952 37.3492L25.2795 29.0503H37.9745L49.7932 17.2316V21.8092H51.0001V15.1714H44.3624Z" fill="#5EAC24"/>
</g>
<defs>
<clipPath id="clip0_6_940">
<rect width="36" height="36" fill="white" transform="translate(15 15)"/>
</clipPath>
</defs>
</svg>
