<svg width="65" height="65" viewBox="0 0 65 65" fill="none" xmlns="http://www.w3.org/2000/svg">
<circle cx="32.5" cy="32.5" r="32.5" fill="#F5F5F5"/>
<path d="M39.2873 49.3249V36.5736L37.219 35.6047L36.6576 32.6231H29.3423L28.781 35.6047L26.7793 36.5423V49.3249H39.2873Z" fill="#E2B48A"/>
<path d="M47.895 50.7187L47.3606 43.8883C47.2736 42.775 46.8931 41.7047 46.2577 40.7865C45.6223 39.8682 44.7549 39.1348 43.7437 38.661L38.0034 35.9717V37.6327H37.3492V38.5046H27.7195V36.1019L22.2562 38.661C21.2449 39.1347 20.3773 39.868 19.7418 40.7863C19.1063 41.7046 18.7256 42.775 18.6385 43.8883L18.105 50.7187H47.895Z" fill="#BAC2D3"/>
<path d="M33.8542 38.5237H31.1047L30.581 39.7446L32.1591 41.7531L31.2417 46.1569L32.9986 49.9636L34.9671 45.8692L34.1425 41.6709L35.3921 39.6164L33.8542 38.5237Z" fill="#DA2A47"/>
<path d="M47.3609 43.8883C47.2739 42.775 46.8933 41.7047 46.2579 40.7864C45.6224 39.8682 44.7549 39.1348 43.7437 38.661L38.5125 36.2096C38.0858 38.6391 37.0728 40.8654 35.9719 43.0581C35.4615 44.0751 34.9831 45.0884 34.5328 46.1313C34.2816 46.7093 33 50.0862 33 50.0862C33 50.0862 30.9221 44.914 30.5438 43.9336C30.0311 42.6038 29.6365 41.2201 28.957 39.9621C28.8406 39.7463 28.7177 39.5343 28.5914 39.3236C27.4354 38.8697 26.8412 37.8893 26.8631 36.5024L22.2562 38.661C21.2449 39.1347 20.3773 39.8681 19.7418 40.7863C19.1063 41.7046 18.7256 42.775 18.6385 43.8883L18.105 50.7188H47.895L47.3609 43.8883Z" fill="#707583"/>
<path d="M47.3609 43.8883C47.2739 42.775 46.8933 41.7047 46.2579 40.7864C45.6224 39.8682 44.7549 39.1348 43.7437 38.661L38.5125 36.2096C38.0858 38.6391 37.0728 40.8654 35.9719 43.0581C35.4615 44.0751 34.9831 45.0884 34.5328 46.1313C34.2816 46.7093 33 50.0862 33 50.0862C33 50.0862 30.9221 44.914 30.5438 43.9336C30.0311 42.6038 29.6365 41.2201 28.957 39.9621C28.8406 39.7463 28.7177 39.5343 28.5914 39.3236C27.4354 38.8697 26.8412 37.8893 26.8631 36.5024L22.2562 38.661C21.2449 39.1347 20.3773 39.8681 19.7418 40.7863C19.1063 41.7046 18.7256 42.775 18.6385 43.8883L18.105 50.7188H47.895L47.3609 43.8883Z" fill="#384868"/>
<path d="M47.895 50.7187H43.8618L43.3275 43.8872C43.2396 42.774 42.8583 41.704 42.2225 40.7861C41.5867 39.8682 40.719 39.1351 39.7078 38.6616L38.1131 37.9134C38.2757 37.3528 38.4081 36.7839 38.5097 36.2091L43.7437 38.6616C44.7546 39.1353 45.6219 39.8684 46.2572 40.7864C46.8926 41.7043 47.2733 42.7742 47.3606 43.8872L47.895 50.7187Z" fill="#2F3A5A"/>
<path d="M40.9732 28.7724C41.2718 27.497 40.9353 26.3277 40.2216 26.1606C39.508 25.9936 38.6875 26.8921 38.3889 28.1675C38.0904 29.4428 38.4268 30.6122 39.1405 30.7792C39.8541 30.9463 40.6747 30.0478 40.9732 28.7724Z" fill="#E2B48A"/>
<path d="M26.8162 30.7894C27.5298 30.6224 27.8663 29.453 27.5678 28.1776C27.2692 26.9022 26.4487 26.0038 25.735 26.1708C25.0214 26.3379 24.6849 27.5072 24.9834 28.7826C25.282 30.058 26.1025 30.9565 26.8162 30.7894Z" fill="#E2B48A"/>
<path d="M32.9727 35.1772C36.6741 35.1772 39.6746 31.0416 39.6746 25.9401C39.6746 20.8386 36.6741 16.703 32.9727 16.703C29.2714 16.703 26.2708 20.8386 26.2708 25.9401C26.2708 31.0416 29.2714 35.1772 32.9727 35.1772Z" fill="#F0C191"/>
<path d="M39.2542 29.1266C39.2542 29.1266 41.6209 24.898 41.1082 21.5444C40.5954 18.1908 38.3362 17.1322 36.9938 17.1322C36.9938 17.1322 35.1819 14.4493 30.7047 15.5437C26.2275 16.638 24.4272 21.5545 25.2743 24.6562C26.1215 27.7578 26.6862 29.1826 26.6862 29.1826C26.6862 29.1826 26.1215 25.217 26.7568 23.0274C27.3922 20.8379 29.2985 19.1091 30.0398 19.7087C30.7812 20.3083 35.5113 20.1095 36.2878 18.7806C37.308 19.5281 37.9908 20.6491 38.1871 21.8985C38.4402 23.9106 39.5706 25.1461 39.4648 26.5931C39.3591 28.0402 39.2542 29.1266 39.2542 29.1266Z" fill="#2F3A5A"/>
<path d="M37.0261 34.5702L33 38.5043L36.5938 40.974L38.2757 36.094L37.0261 34.5702Z" fill="#D9E2E9"/>
<path d="M27.7243 36.094L29.5462 40.8601L33 38.5043L28.9739 34.5702L27.7243 36.094Z" fill="#D9E2E9"/>
<path d="M39.3236 36.5904L37.0261 34.5702L37.0213 34.5654C37.0213 34.5654 36.9794 40.6011 32.9994 49.9636C29.0186 40.6011 28.9776 34.5654 28.9776 34.5654L28.9728 34.5702L26.6755 36.5904L26.2708 40.0056L28.1757 39.7011L26.7473 41.8667C27.5755 43.8844 33 50.1844 33 50.1844C33.8536 49.2419 38.5524 43.802 39.284 42.0188L37.8229 39.7011L39.955 39.7618L39.3236 36.5904Z" fill="#43567C"/>
</svg>
