<svg width="65" height="65" viewBox="0 0 65 65" fill="none" xmlns="http://www.w3.org/2000/svg">
<circle cx="32.5" cy="32.5" r="32.5" fill="#F5F5F5"/>
<path d="M28.0063 34.8281L27.2469 35.2078C26.7125 35.475 26.1641 35.6719 25.5875 35.8125L21.8047 36.7688C20.8063 37.0219 20.075 37.8937 20.0188 38.9344L19.1328 49.7766C19.1188 50.2406 19.4844 50.6344 19.9625 50.6484H19.9766H30.3828L28.0063 34.8281Z" fill="#3CAADC"/>
<path d="M41.2953 42.0422C39.0313 42.0422 37.2032 40.2141 37.2032 37.95C37.2032 37.1344 37.4422 36.3469 37.8922 35.6719C37.4985 35.5453 37.1188 35.3906 36.7391 35.2078L35.9797 34.8281L33.6031 50.6484H44.0094C44.4735 50.6484 44.8531 50.2688 44.8531 49.8047V49.7906L44.1219 40.9031C43.3766 41.6344 42.3641 42.0422 41.2953 42.0422Z" fill="#3CAADC"/>
<path d="M30.3828 50.6484H33.6172L35.9937 34.8281L34.7562 34.2234L33.4765 36.8672C33.3781 37.0641 33.1812 37.1906 32.9562 37.1906H30.9453C30.7203 37.1906 30.5234 37.0641 30.425 36.8531L29.2437 34.2234L28.0062 34.8281L30.3828 50.6484Z" fill="#DAE6F1"/>
<path d="M35.3328 39.1875L35.9797 34.8281L34.7422 34.2234L33.4625 36.8672L35.2766 39.1312L35.3328 39.1875Z" fill="#EDF4FC"/>
<path d="M28.6672 39.1875C28.6813 39.1734 28.6953 39.1594 28.7094 39.1312L30.4813 36.9375C30.4672 36.9094 30.4531 36.8812 30.4391 36.8531L29.2578 34.2234L28.0203 34.8281L28.6672 39.1875Z" fill="#EDF4FC"/>
<path d="M33.4765 36.8672C33.3781 37.0641 33.1812 37.1906 32.9562 37.1906H30.9453C30.7484 37.1906 30.5797 37.0922 30.4672 36.9375L30.1156 37.3734L30.9594 39.5672H33.0125L33.8562 37.3734L33.4765 36.8672Z" fill="#5290DB"/>
<path d="M33.0266 39.5672H30.9734L29.8625 47.2172L30.3828 50.6484H33.6172L34.1375 47.2172L33.0266 39.5672Z" fill="#3A70BF"/>
<path d="M41.2953 42.0422C43.5554 42.0422 45.3875 40.2101 45.3875 37.95C45.3875 35.69 43.5554 33.8578 41.2953 33.8578C39.0353 33.8578 37.2031 35.69 37.2031 37.95C37.2031 40.2101 39.0353 42.0422 41.2953 42.0422Z" fill="#87D147"/>
<path d="M32 33.0422C31.0297 33.0422 30.0875 32.7891 29.2438 32.3109V34.2234L30.425 36.8531C30.5235 37.0641 30.7203 37.1906 30.9453 37.1906H32.9563C33.1813 37.1906 33.3781 37.0641 33.4766 36.8672L34.7563 34.2234V32.3109C33.9125 32.7891 32.9703 33.0422 32 33.0422Z" fill="#F9D0B4"/>
<path d="M37.9485 23.1984C37.8219 23.1984 37.7094 23.2125 37.5828 23.2266V27.4594C37.5828 27.5859 37.5828 27.7125 37.5688 27.8391C38.8344 28.05 40.0438 27.1781 40.2407 25.9125C40.4375 24.6469 39.5797 23.4375 38.3141 23.2406C38.2016 23.1984 38.075 23.1984 37.9485 23.1984Z" fill="#F9D0B4"/>
<path d="M26.4172 27.4453V23.2266C25.1516 23.0156 23.9422 23.8734 23.7313 25.1531C23.5203 26.4187 24.3782 27.6281 25.6578 27.8391C25.911 27.8813 26.1782 27.8813 26.4313 27.8391C26.4172 27.6984 26.4172 27.5719 26.4172 27.4453Z" fill="#F9D0B4"/>
<path d="M32.8438 20.6672C30.7907 23.2406 27.7813 22.875 26.7688 22.6641C26.6141 22.6359 26.4454 22.7344 26.4172 22.8891V22.9453V27.4453C26.4313 30.525 28.9204 33.0281 32 33.0281C35.0797 33.0141 37.5829 30.525 37.5829 27.4453V22.4672C37.5829 22.4391 37.5829 22.4109 37.5829 22.3828C37.5829 22.2281 37.4563 22.1016 37.2875 22.0875C34.9672 22.0172 33.7438 21.1031 33.2797 20.6391C33.1672 20.5266 32.9704 20.5266 32.8579 20.6391C32.8579 20.6531 32.8438 20.6672 32.8438 20.6672Z" fill="#F9D0B4"/>
<path d="M26.0515 23.1984C26.1781 23.1984 26.2906 23.2125 26.4172 23.2266V22.9594C26.4172 22.7906 26.5578 22.6641 26.7125 22.6641H26.7687C27.7812 22.875 30.7906 23.2406 32.8437 20.6672C32.9422 20.5406 33.139 20.5125 33.2656 20.6109C33.2797 20.6109 33.2797 20.625 33.2937 20.6391C33.7578 21.1031 34.9812 22.0172 37.3015 22.0875C37.4562 22.0875 37.5828 22.2281 37.5969 22.3828V22.4672V23.2125C38.3141 23.1 39.0453 23.325 39.5797 23.8453V19.6547C39.5797 17.8969 38.1453 16.4625 36.3875 16.4625C35.8109 16.4625 35.2484 16.6172 34.7562 16.9125C34.1656 15.9422 33.125 15.3516 32 15.3516H30.3547C27.1766 15.3656 24.5891 17.9391 24.5891 21.1172V23.7047C25.0109 23.3672 25.5172 23.1984 26.0515 23.1984Z" fill="#818182"/>
<path d="M40.3953 39.6375L39.1438 38.3859C38.8625 38.1188 38.8625 37.6688 39.1297 37.3875C39.3969 37.1063 39.8469 37.1063 40.1281 37.3734L40.1422 37.3875L40.9016 38.1469L42.4906 36.5578C42.7719 36.2906 43.2078 36.2906 43.4891 36.5719C43.7563 36.8391 43.7563 37.275 43.4891 37.5562L41.4078 39.6375C41.1266 39.9047 40.6766 39.9047 40.3953 39.6375Z" fill="#EDF4FC"/>
<path d="M32 30.3422C30.9875 30.3422 30.0594 29.8219 29.525 28.9781C29.4266 28.8094 29.4688 28.5984 29.6375 28.4859C29.8063 28.3875 30.0172 28.4297 30.1297 28.5984C30.7766 29.6391 32.1547 29.9484 33.1953 29.3016C33.4766 29.1188 33.7156 28.8797 33.8985 28.5984C33.9969 28.4297 34.2219 28.3875 34.3906 28.4859C34.5594 28.5844 34.6016 28.8094 34.5031 28.9781C33.9406 29.8219 33.0125 30.3422 32 30.3422Z" fill="black"/>
<path d="M29.5953 26.4188C29.9604 26.4188 30.2563 26.1228 30.2563 25.7578C30.2563 25.3928 29.9604 25.0969 29.5953 25.0969C29.2303 25.0969 28.9344 25.3928 28.9344 25.7578C28.9344 26.1228 29.2303 26.4188 29.5953 26.4188Z" fill="black"/>
<path d="M34.5172 26.4188C34.8822 26.4188 35.1781 26.1228 35.1781 25.7578C35.1781 25.3928 34.8822 25.0969 34.5172 25.0969C34.1522 25.0969 33.8563 25.3928 33.8563 25.7578C33.8563 26.1228 34.1522 26.4188 34.5172 26.4188Z" fill="black"/>
<path d="M30.3828 51H19.9766C19.3156 51 18.7812 50.4656 18.7812 49.8047C18.7812 49.7906 18.7812 49.7906 18.7812 49.7766V49.7625L19.6672 38.9203C19.7375 37.7391 20.5672 36.7406 21.7203 36.4453L25.5031 35.4891C26.0516 35.3484 26.5859 35.1516 27.0922 34.9125L27.8516 34.5328C28.0203 34.4484 28.2313 34.5187 28.3156 34.6875C28.3297 34.7156 28.3438 34.7578 28.3438 34.7859L30.7344 50.5922C30.7625 50.7891 30.6359 50.9578 30.4391 50.9859C30.4109 51 30.3969 51 30.3828 51ZM19.4844 49.7906C19.4844 50.0719 19.7094 50.2828 19.9766 50.2969H29.975L27.725 35.3625L27.3875 35.5312C26.8391 35.7984 26.2625 36.0094 25.6578 36.1641L21.875 37.1203C21.0172 37.3312 20.3984 38.0766 20.3563 38.9625L19.4844 49.7906Z" fill="black"/>
<path d="M44.0234 51H33.6172C33.4203 51 33.2656 50.8453 33.2656 50.6484C33.2656 50.6344 33.2656 50.6203 33.2656 50.5922L35.6422 34.7719C35.6703 34.575 35.8531 34.4484 36.0359 34.4766C36.0781 34.4766 36.1062 34.4906 36.1344 34.5047L36.8938 34.8844C37.2453 35.0531 37.6109 35.2078 37.9906 35.3203C38.1734 35.3766 38.2719 35.5734 38.2156 35.7562C38.2016 35.7844 38.1875 35.8125 38.1734 35.8406C37.0203 37.5562 37.4703 39.8766 39.1859 41.0297C40.6484 42.0141 42.6031 41.8453 43.8687 40.6078C44.0094 40.4672 44.2344 40.4812 44.3609 40.6219C44.4172 40.6781 44.4453 40.7625 44.4594 40.8328L45.1906 49.7203V49.7344C45.2047 50.3953 44.6844 50.9437 44.0234 50.9578C44.0375 51 44.0375 51 44.0234 51ZM34.025 50.2969H44.0234C44.3047 50.2969 44.5156 50.0719 44.5156 49.8047L43.8406 41.6062C41.8297 43.0125 39.0594 42.5203 37.6531 40.5094C36.6969 39.1453 36.5844 37.3453 37.3719 35.8687C37.1047 35.7703 36.8375 35.6578 36.5984 35.5312L36.2609 35.3625L34.025 50.2969Z" fill="black"/>
<path d="M33.6172 51H30.3828C30.2141 51 30.0594 50.8734 30.0312 50.7047L27.6547 34.8844C27.6266 34.7297 27.7109 34.5891 27.8516 34.5187L29.0891 33.9141C29.2578 33.8297 29.4687 33.9 29.5531 34.0687V34.0828L30.7344 36.7125C30.7766 36.7969 30.8469 36.8391 30.9312 36.8391H32.9422C33.0266 36.8391 33.0969 36.7969 33.1391 36.7125L34.4187 34.0687C34.5031 33.9 34.7141 33.8156 34.8828 33.9L36.1203 34.5047C36.2609 34.575 36.3312 34.7156 36.3172 34.8703L33.9687 50.7047C33.9406 50.8734 33.7859 51 33.6172 51ZM30.6781 50.2969H33.3078L35.6 35.0391L34.9109 34.7016L33.7859 37.0359C33.6312 37.3594 33.3078 37.5562 32.9562 37.5562H30.9453C30.5797 37.5562 30.2562 37.3453 30.1016 37.0078L29.0609 34.7016L28.3859 35.0391L30.6781 50.2969Z" fill="black"/>
<path d="M23.9422 50.7609C23.7453 50.7609 23.5906 50.6063 23.5906 50.4094V41.1562C23.5906 40.9594 23.7453 40.8047 23.9422 40.8047C24.1391 40.8047 24.2938 40.9594 24.2938 41.1562V50.3953C24.2938 50.5922 24.1391 50.7609 23.9422 50.7609Z" fill="black"/>
<path d="M40.3391 50.7609C40.1422 50.7609 39.9875 50.6063 39.9875 50.4094V42C39.9875 41.8031 40.1422 41.6484 40.3391 41.6484C40.5359 41.6484 40.6906 41.8031 40.6906 42V50.3953C40.6906 50.5922 40.5359 50.7609 40.3391 50.7609Z" fill="black"/>
<path d="M35.3328 39.5391C35.2484 39.5391 35.15 39.5109 35.0938 39.4406C35.0656 39.4125 35.0375 39.3844 35.0094 39.3562L33.1953 37.0922C33.1109 36.9797 33.0969 36.8391 33.1531 36.7125L34.4328 34.0687C34.5172 33.9 34.7281 33.8156 34.8969 33.9L36.1344 34.5047C36.275 34.575 36.3453 34.7156 36.3313 34.8703L35.6844 39.2297C35.6563 39.4125 35.5156 39.5391 35.3328 39.5391ZM33.8844 36.825L35.1078 38.3437L35.6 35.025L34.9109 34.6875L33.8844 36.825Z" fill="black"/>
<path d="M28.6672 39.5391C28.4984 39.5391 28.3437 39.4125 28.3156 39.2438L27.6687 34.8844C27.6406 34.7297 27.725 34.5891 27.8656 34.5188L29.1031 33.9141C29.2718 33.8297 29.4828 33.9 29.5672 34.0688V34.0828L30.7484 36.7125C30.7484 36.7266 30.7625 36.7266 30.7625 36.7406C30.8468 36.8672 30.8328 37.0359 30.7484 37.1484L28.9765 39.3422C28.9484 39.3703 28.9203 39.3984 28.8922 39.4266C28.8359 39.5109 28.7515 39.5391 28.6672 39.5391ZM28.4 35.0391L28.8922 38.3578L30.0593 36.9094L29.075 34.7156L28.4 35.0391Z" fill="black"/>
<path d="M33.0266 39.9188H30.9734C30.8328 39.9188 30.6922 39.8344 30.65 39.6938L29.8062 37.5C29.7641 37.3875 29.7781 37.2469 29.8625 37.1484L30.2141 36.7125C30.2844 36.6281 30.3969 36.5719 30.5094 36.5859C30.6219 36.5859 30.7203 36.6563 30.7906 36.7406C30.8328 36.7969 30.9031 36.8391 30.9734 36.8391H32.9844C33.0687 36.8391 33.1391 36.7969 33.1812 36.7125C33.2656 36.5438 33.4766 36.4594 33.6453 36.5438C33.6875 36.5719 33.7297 36.6 33.7719 36.6422L34.1797 37.1344C34.2641 37.2328 34.2781 37.3594 34.2359 37.4859L33.3922 39.6797C33.2937 39.8344 33.1672 39.9188 33.0266 39.9188ZM31.2125 39.2156H32.7734L33.4625 37.4297L33.4344 37.4016C33.2937 37.5 33.1109 37.5422 32.9422 37.5422H30.9312C30.7906 37.5422 30.6359 37.5141 30.5094 37.4438L31.2125 39.2156Z" fill="black"/>
<path d="M33.6172 51H30.3828C30.214 51 30.0594 50.8734 30.0312 50.7047L29.5109 47.2734C29.5109 47.2453 29.5109 47.2031 29.5109 47.175L30.6219 39.525C30.65 39.3563 30.7906 39.2297 30.9734 39.2297H33.0266C33.1953 39.2297 33.35 39.3563 33.3781 39.525L34.489 47.175V47.2734L33.9687 50.7047C33.9406 50.8734 33.7859 51 33.6172 51ZM30.6781 50.2969H33.3078L33.7719 47.2172L32.7172 39.9188H31.2828L30.2281 47.2172L30.6781 50.2969Z" fill="black"/>
<path d="M41.2953 42.3938C38.8484 42.3938 36.8516 40.4109 36.8516 37.95C36.8516 35.4891 38.8344 33.5063 41.2953 33.5063C43.7563 33.5063 45.7391 35.4891 45.7391 37.95C45.7391 40.4109 43.7563 42.3938 41.2953 42.3938ZM41.2953 34.2094C39.2281 34.2094 37.5547 35.8828 37.5547 37.95C37.5547 40.0172 39.2281 41.6906 41.2953 41.6906C43.3625 41.6906 45.0359 40.0172 45.0359 37.95C45.0359 35.8969 43.3625 34.2234 41.2953 34.2094Z" fill="black"/>
<path d="M22.9578 19.2047H22.6625V18.9094C22.6625 18.6984 22.4797 18.5156 22.2687 18.5156C22.0578 18.5156 21.875 18.6844 21.875 18.9094V19.2047H21.5797C21.3687 19.2047 21.1859 19.3875 21.1859 19.5984C21.1859 19.8094 21.3687 19.9922 21.5797 19.9922H21.875V20.2875C21.875 20.4984 22.0578 20.6813 22.2687 20.6813C22.4797 20.6813 22.6625 20.4984 22.6625 20.2875V19.9922H22.9578C23.1687 19.9922 23.3515 19.8094 23.3515 19.5984C23.3515 19.3734 23.1687 19.2047 22.9578 19.2047Z" fill="#70D6F9"/>
<path d="M42.5188 29.7516C41.9563 29.6531 41.5203 29.2172 41.4078 28.6688C41.4078 28.6547 41.3937 28.6406 41.3797 28.6547C41.3656 28.6547 41.3656 28.6688 41.3656 28.6688C41.2531 29.2313 40.8172 29.6531 40.2547 29.7516C40.2406 29.7516 40.2266 29.7656 40.2266 29.7797C40.2266 29.7938 40.2406 29.7938 40.2547 29.8078C40.8172 29.9063 41.2531 30.3422 41.3656 30.8906C41.3656 30.9047 41.3797 30.9188 41.3938 30.9047C41.4078 30.9047 41.4078 30.8906 41.4078 30.8906C41.5203 30.3281 41.9563 29.9063 42.5188 29.8078C42.5328 29.8078 42.5469 29.7938 42.5469 29.7797C42.5469 29.7516 42.5328 29.7516 42.5188 29.7516Z" fill="#F5C84C"/>
<path d="M21.4531 23.5781C21.6861 23.5781 21.875 23.3892 21.875 23.1562C21.875 22.9233 21.6861 22.7344 21.4531 22.7344C21.2201 22.7344 21.0312 22.9233 21.0312 23.1562C21.0312 23.3892 21.2201 23.5781 21.4531 23.5781Z" fill="#87D147"/>
<path d="M43.25 32.5781C43.483 32.5781 43.6719 32.3892 43.6719 32.1562C43.6719 31.9233 43.483 31.7344 43.25 31.7344C43.017 31.7344 42.8281 31.9233 42.8281 32.1562C42.8281 32.3892 43.017 32.5781 43.25 32.5781Z" fill="#FC657E"/>
<path d="M17.7969 43.125C18.0299 43.125 18.2188 42.9361 18.2188 42.7031C18.2188 42.4701 18.0299 42.2812 17.7969 42.2812C17.5639 42.2812 17.375 42.4701 17.375 42.7031C17.375 42.9361 17.5639 43.125 17.7969 43.125Z" fill="#F5C84C"/>
<path d="M32.9563 37.5422H30.9453C30.5797 37.5422 30.2563 37.3312 30.1016 36.9937L28.9203 34.3641C28.9063 34.3219 28.8922 34.2656 28.8922 34.2234V32.3109C28.8922 32.1141 29.0469 31.9594 29.2438 31.9594C29.3 31.9594 29.3703 31.9734 29.4125 32.0016C31.0156 32.9156 32.9844 32.9156 34.5735 32.0016C34.7422 31.9031 34.9531 31.9594 35.0516 32.1281C35.0797 32.1844 35.0938 32.2406 35.0938 32.2969V34.2094C35.0938 34.2656 35.0797 34.3219 35.0656 34.3641L33.786 37.0078C33.6313 37.3453 33.3078 37.5422 32.9563 37.5422ZM29.5953 34.1531L30.7485 36.7125C30.7906 36.7969 30.861 36.8391 30.9453 36.8391H32.9563C33.0406 36.8391 33.111 36.7969 33.1531 36.7125L34.4047 34.1391V32.8734C32.8719 33.5625 31.1281 33.5625 29.5953 32.8734V34.1531Z" fill="black"/>
<path d="M37.9484 28.2047C37.8078 28.2047 37.6672 28.1906 37.5265 28.1625C37.3437 28.1344 37.2172 27.9797 37.2312 27.7969C37.2453 27.6563 37.2453 27.5438 37.2453 27.4453V23.2266C37.2453 23.0578 37.3719 22.9031 37.5406 22.875C39.0031 22.65 40.3812 23.6484 40.6062 25.1109C40.8312 26.5734 39.8328 27.9516 38.3703 28.1766C38.2297 28.2047 38.089 28.2047 37.9484 28.2047ZM37.9344 27.5016C39.0312 27.5156 39.9312 26.6297 39.9453 25.5328C39.9594 24.4359 39.0734 23.55 37.9765 23.5359C37.9625 23.5359 37.9484 23.5359 37.9484 23.5359H37.9344V27.4453V27.5016Z" fill="black"/>
<path d="M26.0515 28.2047C24.575 28.2047 23.3656 27.0094 23.3656 25.5328C23.3656 24.0563 24.5609 22.8469 26.0375 22.8469C26.1781 22.8469 26.3187 22.8609 26.4734 22.875C26.6422 22.9031 26.7687 23.0438 26.7687 23.2266V27.4594C26.7687 27.5578 26.7687 27.6703 26.7828 27.8109C26.7969 27.9938 26.6703 28.1484 26.4875 28.1766C26.3469 28.1906 26.1922 28.2047 26.0515 28.2047ZM26.0515 23.55C24.9547 23.5641 24.0828 24.45 24.0828 25.5469C24.0969 26.6297 24.9687 27.5016 26.0515 27.5156H26.0656C26.0656 27.5016 26.0656 27.4734 26.0656 27.4594L26.0515 23.55Z" fill="black"/>
<path d="M32 33.3937C28.7234 33.3937 26.0656 30.7359 26.0656 27.4594V22.9594C26.0656 22.7625 26.15 22.5797 26.3047 22.4531C26.4594 22.3266 26.6562 22.2844 26.8531 22.3266C27.95 22.5516 30.6781 22.8328 32.5766 20.4562C32.8016 20.175 33.2094 20.1328 33.4906 20.3437C33.5047 20.3578 33.5328 20.3719 33.5469 20.3859C33.9406 20.7656 35.0937 21.6656 37.3297 21.7359C37.6812 21.75 37.9484 22.0312 37.9625 22.3687V22.4672V27.4453C37.9344 30.7359 35.2765 33.3937 32 33.3937ZM26.7687 23.0156V27.4453C26.7687 30.3422 29.1172 32.6766 32 32.6766C34.8828 32.6766 37.2312 30.3281 37.2312 27.4453V22.4672C37.2312 22.4531 37.2312 22.4531 37.2312 22.4391C34.925 22.3547 33.6453 21.4828 33.0687 20.9344C30.9312 23.5781 27.7812 23.2266 26.7687 23.0156Z" fill="black"/>
<path d="M39.5656 24.1969C39.4813 24.1969 39.3828 24.1547 39.3266 24.0984C38.961 23.7469 38.4688 23.5359 37.9485 23.5359C37.85 23.5359 37.7375 23.55 37.6391 23.5641C37.4422 23.5922 37.2735 23.4656 37.2313 23.2688C37.2313 23.2547 37.2313 23.2266 37.2313 23.2125V22.4672C37.2313 22.4531 37.2313 22.4531 37.2313 22.4391C34.925 22.3547 33.6453 21.4828 33.0688 20.9344C30.9313 23.5781 27.7813 23.2266 26.7688 23.0156V23.2125C26.7688 23.4094 26.6141 23.5641 26.4172 23.5641C26.4031 23.5641 26.375 23.5641 26.361 23.5641C26.2625 23.55 26.1641 23.5359 26.0516 23.5359C25.6016 23.5359 25.1656 23.6906 24.8141 23.9719C24.6594 24.0984 24.4344 24.0703 24.3219 23.9156C24.2656 23.8594 24.2516 23.775 24.2516 23.6906V21.1172C24.2516 17.7422 26.9938 15 30.3688 15H32C33.125 15 34.1797 15.5484 34.8547 16.4484C35.3328 16.2234 35.8391 16.0969 36.3735 16.0969C38.3281 16.0969 39.9172 17.6859 39.9172 19.6406V23.8313C39.9172 24.0422 39.7625 24.1969 39.5656 24.1969ZM37.9485 22.8469C38.3844 22.8469 38.8203 22.9594 39.2141 23.1703V19.6547C39.2141 18.0937 37.9625 16.8141 36.3875 16.8141C35.8672 16.8141 35.361 16.9547 34.925 17.2219C34.7563 17.3203 34.5453 17.2641 34.4469 17.0953C33.9266 16.2375 32.9985 15.7031 32 15.7031H30.3547C27.3735 15.7031 24.9547 18.1359 24.9547 21.1172V23.0719C25.3063 22.9172 25.686 22.8328 26.0797 22.8328C26.15 22.4813 26.4875 22.2422 26.8391 22.3125H26.8531C27.95 22.5375 30.6782 22.8187 32.5766 20.4422C32.8016 20.1609 33.2094 20.1188 33.4907 20.3297C33.5047 20.3438 33.5328 20.3578 33.5469 20.3719C33.9406 20.7516 35.0938 21.6516 37.3297 21.7219C37.6813 21.7359 37.9485 22.0172 37.9625 22.3547V22.4531L37.9485 22.8469Z" fill="black"/>
<path d="M40.9015 40.1859C40.6203 40.1859 40.3531 40.0734 40.1562 39.8766L38.9047 38.625C38.4828 38.2172 38.4828 37.5562 38.8906 37.1344C39.2984 36.7125 39.9594 36.7125 40.3812 37.1203L40.3953 37.1344L40.9015 37.6406L42.2375 36.3047C42.6453 35.8828 43.3062 35.8828 43.7281 36.2906C44.15 36.6984 44.15 37.3594 43.7422 37.7812L43.7281 37.7953L41.6469 39.8906C41.45 40.0875 41.1828 40.1859 40.9015 40.1859ZM40.6484 39.3844C40.789 39.525 41.014 39.525 41.1406 39.3844L43.2219 37.3031C43.3625 37.1625 43.3625 36.9375 43.2219 36.8109C43.0812 36.6844 42.8703 36.6844 42.7297 36.8109L41.1406 38.3859C41 38.5266 40.775 38.5266 40.6484 38.3859L39.889 37.6266C39.7484 37.5 39.5375 37.5 39.3969 37.6266C39.2562 37.7672 39.2562 37.9922 39.3969 38.1187L40.6484 39.3844Z" fill="black"/>
</svg>
