<svg width="29" height="29" viewBox="0 0 29 29" fill="none" xmlns="http://www.w3.org/2000/svg">
<g clip-path="url(#clip0_2520_7389)">
<path d="M17.0455 29C18.1976 29 19.1214 28.0393 19.1214 26.8872V23.8712H2.78516V26.8872C2.78516 28.0393 3.71787 29 4.87022 29H17.0455ZM10.9577 24.6664C11.935 24.6664 12.7272 25.4586 12.7272 26.4358C12.7272 27.4131 11.935 28.2053 10.9577 28.2053C9.98049 28.2053 9.18827 27.4131 9.18827 26.4358C9.1895 25.4591 9.98099 24.6676 10.9577 24.6664Z" fill="url(#paint0_linear_2520_7389)"/>
<path d="M11.8422 26.4358C11.8422 26.9236 11.4469 27.3188 10.9592 27.3188C10.4717 27.3188 10.0762 26.9236 10.0762 26.4358C10.0762 25.9483 10.4717 25.5528 10.9592 25.5528C11.4469 25.5528 11.8422 25.9483 11.8422 26.4358Z" fill="url(#paint1_linear_2520_7389)"/>
<path d="M19.1214 6.33905V5.00218H2.78516V22.9847H19.1214V22.6609C19.0581 22.6624 18.997 22.6634 18.9322 22.6634C14.4309 22.6634 10.7737 19.0013 10.7737 14.5C10.7737 9.99868 14.4323 6.33658 18.9337 6.33658C18.9987 6.33658 19.0581 6.33757 19.1214 6.33905Z" fill="url(#paint2_linear_2520_7389)"/>
<path d="M11.6777 14.0568H14.1004C14.1299 13.0954 14.2862 12.1421 14.5652 11.2215C14.0552 10.8978 13.5827 10.5183 13.1566 10.0899C12.2793 11.2354 11.7643 12.6168 11.6777 14.0568Z" fill="url(#paint3_linear_2520_7389)"/>
<path d="M19.375 7.41299V11.5923C20.3683 11.5389 21.3394 11.2784 22.2258 10.8275C21.6297 9.34298 20.6414 8.15724 19.375 7.41299Z" fill="url(#paint4_linear_2520_7389)"/>
<path d="M19.375 16.5198C20.4677 16.5678 21.5387 16.8421 22.5199 17.3254C22.7393 16.5492 22.865 15.7493 22.8941 14.9432H19.375V16.5198Z" fill="url(#paint5_linear_2520_7389)"/>
<path d="M23.3203 11.2292C23.5978 12.1473 23.7534 13.0981 23.7826 14.0568H26.2053C26.1187 12.6175 25.6042 11.2369 24.7279 10.0919C24.303 10.5225 23.8308 10.9042 23.3203 11.2292Z" fill="url(#paint6_linear_2520_7389)"/>
<path d="M24.1462 9.41941C23.2862 8.53715 22.2164 7.88739 21.0371 7.53098C21.8951 8.32172 22.5686 9.29178 23.0094 10.3724C23.4202 10.0949 23.8011 9.77533 24.1462 9.41941Z" fill="url(#paint7_linear_2520_7389)"/>
<path d="M13.1563 18.9101C13.5825 18.4817 14.0552 18.1022 14.5652 17.7785C14.2859 16.8581 14.1299 15.9046 14.1004 14.9432H11.6777C11.7643 16.3832 12.2793 17.7646 13.1563 18.9101Z" fill="url(#paint8_linear_2520_7389)"/>
<path d="M19.375 14.0568H22.8941C22.865 13.2504 22.7393 12.4505 22.5197 11.6741C21.5385 12.1572 20.4677 12.4315 19.375 12.4797V14.0568Z" fill="url(#paint9_linear_2520_7389)"/>
<path d="M16.8458 7.53098C15.6673 7.88714 14.598 8.53641 13.7383 9.41792C14.0843 9.77162 14.4657 10.089 14.8763 10.3652C15.317 9.28758 15.9896 8.31999 16.8458 7.53098Z" fill="url(#paint10_linear_2520_7389)"/>
<path d="M18.4885 7.41275C17.2221 8.156 16.237 9.33878 15.6406 10.8194C16.5266 11.27 17.4962 11.5324 18.4885 11.5901V7.41275Z" fill="url(#paint11_linear_2520_7389)"/>
<path d="M19.375 21.5875C20.6414 20.843 21.63 19.657 22.2261 18.1725C21.3394 17.7213 20.3683 17.4606 19.375 17.4075V21.5875Z" fill="url(#paint12_linear_2520_7389)"/>
<path d="M19.1214 2.11276C19.1214 0.960657 18.1976 -7.62939e-06 17.0455 -7.62939e-06H4.87022C3.71787 -7.62939e-06 2.78516 0.960657 2.78516 2.11276V4.11571H19.1214V2.11276ZM13.1128 2.34279H8.80267C8.5578 2.34279 8.35943 2.14442 8.35943 1.89956C8.35943 1.65469 8.5578 1.45632 8.80267 1.45632H13.1128C13.3577 1.45632 13.556 1.65469 13.556 1.89956C13.556 2.14442 13.3577 2.34279 13.1128 2.34279Z" fill="url(#paint13_linear_2520_7389)"/>
<path d="M14.876 18.6348C14.4655 18.911 14.0843 19.2284 13.7383 19.5823C14.598 20.4636 15.6668 21.1129 16.8454 21.469C15.9893 20.68 15.317 19.7124 14.876 18.6348Z" fill="url(#paint14_linear_2520_7389)"/>
<path d="M21.0371 21.469C22.2162 21.1124 23.2857 20.4626 24.1457 19.5806C23.8006 19.2247 23.4197 18.9051 23.0091 18.6276C22.5681 19.708 21.8949 20.678 21.0371 21.469Z" fill="url(#paint15_linear_2520_7389)"/>
<path d="M23.3203 17.7708C23.8308 18.0958 24.3032 18.4775 24.7282 18.9081C25.6045 17.7631 26.119 16.3825 26.2055 14.9432H23.7828C23.7534 15.9019 23.5981 16.8527 23.3203 17.7708Z" fill="url(#paint16_linear_2520_7389)"/>
<path d="M18.4891 12.4785C17.4011 12.4179 16.336 12.1419 15.3558 11.666C15.1379 12.4454 15.0145 13.248 14.9883 14.0568H18.4891V12.4785Z" fill="url(#paint17_linear_2520_7389)"/>
<path d="M18.4885 21.5875V17.4102C17.4962 17.4678 16.5266 17.7302 15.6406 18.1806C16.237 19.6612 17.2221 20.8445 18.4885 21.5875Z" fill="url(#paint18_linear_2520_7389)"/>
<path d="M18.4891 14.9432H14.9883C15.0145 15.752 15.1379 16.5549 15.3558 17.3343C16.3363 16.8586 17.4013 16.5823 18.4891 16.5217V14.9432Z" fill="url(#paint19_linear_2520_7389)"/>
</g>
<defs>
<linearGradient id="paint0_linear_2520_7389" x1="10.9533" y1="29" x2="10.9533" y2="23.8712" gradientUnits="userSpaceOnUse">
<stop stop-color="#5558FF"/>
<stop offset="1" stop-color="#00C0FF"/>
</linearGradient>
<linearGradient id="paint1_linear_2520_7389" x1="10.9592" y1="27.3188" x2="10.9592" y2="25.5528" gradientUnits="userSpaceOnUse">
<stop stop-color="#5558FF"/>
<stop offset="1" stop-color="#00C0FF"/>
</linearGradient>
<linearGradient id="paint2_linear_2520_7389" x1="10.9533" y1="22.9846" x2="10.9533" y2="5.00211" gradientUnits="userSpaceOnUse">
<stop stop-color="#5558FF"/>
<stop offset="1" stop-color="#00C0FF"/>
</linearGradient>
<linearGradient id="paint3_linear_2520_7389" x1="13.1215" y1="14.0567" x2="13.1215" y2="10.0899" gradientUnits="userSpaceOnUse">
<stop stop-color="#5558FF"/>
<stop offset="1" stop-color="#00C0FF"/>
</linearGradient>
<linearGradient id="paint4_linear_2520_7389" x1="20.8004" y1="11.5923" x2="20.8004" y2="7.41298" gradientUnits="userSpaceOnUse">
<stop stop-color="#5558FF"/>
<stop offset="1" stop-color="#00C0FF"/>
</linearGradient>
<linearGradient id="paint5_linear_2520_7389" x1="21.1346" y1="17.3253" x2="21.1346" y2="14.9432" gradientUnits="userSpaceOnUse">
<stop stop-color="#5558FF"/>
<stop offset="1" stop-color="#00C0FF"/>
</linearGradient>
<linearGradient id="paint6_linear_2520_7389" x1="24.7628" y1="14.0568" x2="24.7628" y2="10.0919" gradientUnits="userSpaceOnUse">
<stop stop-color="#5558FF"/>
<stop offset="1" stop-color="#00C0FF"/>
</linearGradient>
<linearGradient id="paint7_linear_2520_7389" x1="22.5916" y1="10.3724" x2="22.5916" y2="7.53096" gradientUnits="userSpaceOnUse">
<stop stop-color="#5558FF"/>
<stop offset="1" stop-color="#00C0FF"/>
</linearGradient>
<linearGradient id="paint8_linear_2520_7389" x1="13.1215" y1="18.91" x2="13.1215" y2="14.9432" gradientUnits="userSpaceOnUse">
<stop stop-color="#5558FF"/>
<stop offset="1" stop-color="#00C0FF"/>
</linearGradient>
<linearGradient id="paint9_linear_2520_7389" x1="21.1346" y1="14.0568" x2="21.1346" y2="11.6741" gradientUnits="userSpaceOnUse">
<stop stop-color="#5558FF"/>
<stop offset="1" stop-color="#00C0FF"/>
</linearGradient>
<linearGradient id="paint10_linear_2520_7389" x1="15.2921" y1="10.3652" x2="15.2921" y2="7.53096" gradientUnits="userSpaceOnUse">
<stop stop-color="#5558FF"/>
<stop offset="1" stop-color="#00C0FF"/>
</linearGradient>
<linearGradient id="paint11_linear_2520_7389" x1="17.0646" y1="11.59" x2="17.0646" y2="7.41273" gradientUnits="userSpaceOnUse">
<stop stop-color="#5558FF"/>
<stop offset="1" stop-color="#00C0FF"/>
</linearGradient>
<linearGradient id="paint12_linear_2520_7389" x1="20.8005" y1="21.5875" x2="20.8005" y2="17.4075" gradientUnits="userSpaceOnUse">
<stop stop-color="#5558FF"/>
<stop offset="1" stop-color="#00C0FF"/>
</linearGradient>
<linearGradient id="paint13_linear_2520_7389" x1="10.9533" y1="4.1157" x2="10.9533" y2="-2.30843e-05" gradientUnits="userSpaceOnUse">
<stop stop-color="#5558FF"/>
<stop offset="1" stop-color="#00C0FF"/>
</linearGradient>
<linearGradient id="paint14_linear_2520_7389" x1="15.2918" y1="21.469" x2="15.2918" y2="18.6348" gradientUnits="userSpaceOnUse">
<stop stop-color="#5558FF"/>
<stop offset="1" stop-color="#00C0FF"/>
</linearGradient>
<linearGradient id="paint15_linear_2520_7389" x1="22.5914" y1="21.469" x2="22.5914" y2="18.6276" gradientUnits="userSpaceOnUse">
<stop stop-color="#5558FF"/>
<stop offset="1" stop-color="#00C0FF"/>
</linearGradient>
<linearGradient id="paint16_linear_2520_7389" x1="24.7629" y1="18.9081" x2="24.7629" y2="14.9432" gradientUnits="userSpaceOnUse">
<stop stop-color="#5558FF"/>
<stop offset="1" stop-color="#00C0FF"/>
</linearGradient>
<linearGradient id="paint17_linear_2520_7389" x1="16.7387" y1="14.0568" x2="16.7387" y2="11.666" gradientUnits="userSpaceOnUse">
<stop stop-color="#5558FF"/>
<stop offset="1" stop-color="#00C0FF"/>
</linearGradient>
<linearGradient id="paint18_linear_2520_7389" x1="17.0646" y1="21.5875" x2="17.0646" y2="17.4102" gradientUnits="userSpaceOnUse">
<stop stop-color="#5558FF"/>
<stop offset="1" stop-color="#00C0FF"/>
</linearGradient>
<linearGradient id="paint19_linear_2520_7389" x1="16.7387" y1="17.3342" x2="16.7387" y2="14.9432" gradientUnits="userSpaceOnUse">
<stop stop-color="#5558FF"/>
<stop offset="1" stop-color="#00C0FF"/>
</linearGradient>
<clipPath id="clip0_2520_7389">
<rect width="29" height="29" fill="white"/>
</clipPath>
</defs>
</svg>
