<svg width="29" height="29" viewBox="0 0 29 29" fill="none" xmlns="http://www.w3.org/2000/svg">
<mask id="mask0_2520_7429" style="mask-type:luminance" maskUnits="userSpaceOnUse" x="0" y="0" width="29" height="29">
<path d="M0 1.90735e-06H29V29H0V1.90735e-06Z" fill="white"/>
</mask>
<g mask="url(#mask0_2520_7429)">
<path d="M14.5 4.53125L13.6504 4.94665L24.3271 10.167V17.1438C24.3271 21.8634 21.7341 26.2014 17.577 28.436L17.3181 28.5752H24.3271H26.0264V10.167L14.5 4.53125Z" fill="#E5E1E5"/>
<path d="M14.499 28.1504C14.2644 28.1504 14.0742 27.9602 14.0742 27.7256V22.9219C14.0742 22.6873 14.2644 22.4971 14.499 22.4971C14.7337 22.4971 14.9238 22.6873 14.9238 22.9219V27.7256C14.9238 27.9602 14.7337 28.1504 14.499 28.1504Z" fill="#E5E1E5"/>
<path d="M15.7744 17.3654C15.5398 17.3654 15.3496 17.1752 15.3496 16.9406V15.0444C15.3496 14.8098 15.5398 14.6196 15.7744 14.6196C16.0091 14.6196 16.1992 14.8098 16.1992 15.0444V16.9406C16.1992 17.1752 16.0091 17.3654 15.7744 17.3654Z" fill="#E5E1E5"/>
<path d="M13.2256 17.3654C12.9909 17.3654 12.8008 17.1752 12.8008 16.9406V15.0444C12.8008 14.8098 12.9909 14.6196 13.2256 14.6196C13.4602 14.6196 13.6504 14.8098 13.6504 15.0444V16.9406C13.6504 17.1752 13.4602 17.3654 13.2256 17.3654Z" fill="#E5E1E5"/>
<path d="M14.4997 22.9219C12.9433 22.9219 11.6816 21.6602 11.6816 20.1038V17.324C11.6816 17.1123 11.8533 16.9406 12.065 16.9406H16.9344C17.1462 16.9406 17.3178 17.1123 17.3178 17.324V20.1038C17.3178 21.6602 16.0562 22.9219 14.4997 22.9219Z" fill="#60B7FF"/>
<path d="M16.9347 16.9406H15.2355C15.4472 16.9406 15.6189 17.1123 15.6189 17.324V20.1038C15.6189 21.3641 14.7915 22.4309 13.6504 22.7913C13.9185 22.876 14.2038 22.9219 14.5 22.9219C16.0564 22.9219 17.3181 21.6602 17.3181 20.1038V17.324C17.3181 17.1123 17.1464 16.9406 16.9347 16.9406Z" fill="#26A6FE"/>
<path d="M28.1678 12.5762L14.499 5.97556L0.830226 12.5762C0.642122 12.667 0.423828 12.53 0.423828 12.3212V9.77836C0.423828 9.66967 0.485964 9.57055 0.583896 9.52331L14.499 2.80369L28.4142 9.52331C28.512 9.57055 28.5742 9.66967 28.5742 9.77836V12.3212C28.5742 12.53 28.3559 12.667 28.1678 12.5762Z" fill="#D77F4A"/>
<path d="M28.4151 9.52329L14.5 2.80373L13.6504 3.21398L25.8401 9.10036C26.4099 9.37552 26.876 10.1182 26.876 10.7509V11.9519L28.1688 12.5762C28.3569 12.667 28.5752 12.5301 28.5752 12.3212V9.77829C28.5752 9.66965 28.5131 9.57053 28.4151 9.52329Z" fill="#C86D36"/>
<path d="M12.7998 5.42124L9.77259 5.09057L7.58043 6.14471C7.66052 7.17161 7.10006 8.1418 6.17053 8.58547L0.423828 11.3285V12.3212C0.423828 12.53 0.642121 12.667 0.830225 12.5763L13.6494 6.38589L12.7998 5.42124Z" fill="#C86D36"/>
<path d="M28.2344 26.876H0.763672C0.576021 26.876 0.423828 27.0281 0.423828 27.2158V28.2354C0.423828 28.423 0.576021 28.5752 0.763672 28.5752H28.2344C28.422 28.5752 28.5742 28.423 28.5742 28.2354V27.2158C28.5742 27.0281 28.422 26.876 28.2344 26.876Z" fill="#9B8E99"/>
<path d="M28.2344 26.876H26.5352C26.7228 26.876 26.875 27.0282 26.875 27.2158V28.2354C26.875 28.423 26.7228 28.5752 26.5352 28.5752H28.2344C28.422 28.5752 28.5742 28.423 28.5742 28.2354V27.2158C28.5742 27.0282 28.422 26.876 28.2344 26.876Z" fill="#918291"/>
<path d="M20.4975 6.42257C20.4975 9.73503 17.8122 12.4203 14.4997 12.4203C11.1872 12.4203 8.50195 9.73503 8.50195 6.42257C8.50195 3.11011 11.1872 0.424783 14.4997 0.424783C17.8122 0.424783 20.4975 3.11011 20.4975 6.42257Z" fill="#FEDF30"/>
<path d="M16.2962 0.698358C17.8119 1.78688 18.7992 3.56454 18.7992 5.57296C18.7992 8.88542 16.1139 11.5707 12.8014 11.5707C12.1759 11.5707 11.5727 11.4748 11.0059 11.2972C11.9899 12.0039 13.1965 12.4203 14.5006 12.4203C17.8131 12.4203 20.4984 9.73503 20.4984 6.42257C20.4984 3.73565 18.7315 1.46153 16.2962 0.698358Z" fill="#FAC600"/>
<path d="M15.6015 2.34785C15.9408 2.34513 16.167 2.65637 16.0534 2.94977C15.7514 3.72954 15.4171 4.49946 15.0911 5.26954C15.0714 5.31616 15.0856 5.33559 15.1241 5.3579C15.7345 5.71021 16.3435 6.06495 16.9545 6.41629C17.2554 6.58933 17.3033 6.94157 17.0522 7.1798C15.9456 8.22953 14.8373 9.27738 13.7294 10.3257C13.5436 10.5016 13.3606 10.5414 13.1701 10.4492C12.9626 10.3487 12.8607 10.1125 12.9454 9.89368C13.061 9.59496 13.1877 9.30049 13.3107 9.00465C13.5091 8.52746 13.7076 8.05026 13.9087 7.57419C13.9293 7.5256 13.912 7.50832 13.8746 7.4868C13.2567 7.13143 12.6326 6.78321 12.0224 6.41482C11.7383 6.24331 11.7047 5.89361 11.9469 5.66416C13.0541 4.61506 14.1646 3.5693 15.2697 2.51788C15.3716 2.42092 15.4834 2.3517 15.6015 2.34785Z" fill="#FEA95C"/>
<path d="M16.9548 6.41627C16.3439 6.06492 15.7349 5.71024 15.1246 5.35788C15.086 5.33556 15.0718 5.31613 15.0916 5.26952C15.4175 4.49943 15.7519 3.72952 16.0538 2.9498C16.1675 2.65635 15.9412 2.34511 15.6019 2.34783C15.4838 2.35168 15.372 2.42089 15.2701 2.51792C14.8719 2.89679 14.4725 3.27452 14.0733 3.65237C14.0218 3.81963 13.7088 4.46806 13.5352 4.91959C13.4443 5.15607 13.5385 5.42307 13.7577 5.55C14.2569 5.83893 14.7557 6.12876 15.2556 6.41627C15.5566 6.58936 15.6045 6.94155 15.3534 7.17978C14.6482 7.84876 13.942 8.51656 13.2359 9.18458C13.1372 9.42014 13.038 9.65554 12.9459 9.89366C12.8612 10.1126 12.963 10.3487 13.1705 10.4492C13.3611 10.5414 13.544 10.5015 13.7298 10.3257C14.8377 9.27741 15.946 8.2295 17.0527 7.17978C17.3038 6.94155 17.2558 6.58936 16.9548 6.41627Z" fill="#FE9738"/>
<path d="M20.5952 8.44759C20.8073 7.81067 20.9225 7.1299 20.9225 6.42269C20.9225 6.40745 20.9221 6.39233 20.922 6.37715L28.1504 9.86768V12.0958L20.5952 8.44759ZM14.5 11.9956C11.4271 11.9956 8.92702 9.49555 8.92702 6.42269C8.92702 3.34971 11.4271 0.849703 14.5 0.849703C17.5729 0.849703 20.0729 3.34971 20.0729 6.42269C20.0729 9.49555 17.5729 11.9956 14.5 11.9956ZM28.1504 28.1505H0.849609V27.3009H28.1504V28.1505ZM12.1067 20.1039V17.3655H16.8933V20.1039C16.8933 21.4236 15.8197 22.4972 14.5 22.4972C13.1803 22.4972 12.1067 21.4236 12.1067 20.1039ZM26.0264 21.9982C26.261 21.9982 26.4512 21.808 26.4512 21.5734V12.2188L27.9847 12.9592C28.2049 13.0654 28.4606 13.0516 28.6685 12.921C28.8761 12.7906 29 12.5664 29 12.3211V9.77853C29 9.50796 28.8424 9.25761 28.5996 9.1411L20.8398 5.39392C20.346 2.33986 17.6912 9.34601e-05 14.5 9.34601e-05C10.9585 9.34601e-05 8.07741 2.88123 8.07741 6.42269C8.07741 7.1299 8.19261 7.81067 8.40473 8.44759L0.849609 12.0958V9.86768L6.90823 6.94197C7.1195 6.83996 7.20803 6.58598 7.10608 6.37471C7.00412 6.1635 6.7502 6.0748 6.53876 6.17687L0.401355 9.14064C0.157517 9.25761 0 9.50801 0 9.77853V12.3211C0 12.5664 0.123872 12.7906 0.33146 12.921C0.539501 13.0517 0.795348 13.0653 1.01562 12.9591L2.54883 12.2188V26.4513H0.764648C0.342959 26.4513 0 26.7943 0 27.2159V28.2354C0 28.6571 0.342959 29.0001 0.764648 29.0001H28.2353C28.657 29.0001 29 28.6571 29 28.2354V27.2159C29 26.7943 28.657 26.4513 28.2353 26.4513H26.4512V23.2726C26.4512 23.038 26.261 22.8478 26.0264 22.8478C25.7917 22.8478 25.6016 23.038 25.6016 23.2726V26.4513H14.9248V23.3181C16.5128 23.1092 17.7429 21.748 17.7429 20.1039V17.3241C17.7429 16.8785 17.3803 16.5159 16.9347 16.5159H16.1992V15.0445C16.1992 14.8099 16.009 14.6197 15.7744 14.6197C15.5398 14.6197 15.3496 14.8099 15.3496 15.0445V16.5159H13.6504V15.0445C13.6504 14.8099 13.4602 14.6197 13.2256 14.6197C12.9909 14.6197 12.8008 14.8099 12.8008 15.0445V16.5159H12.0652C11.6196 16.5159 11.2571 16.8785 11.2571 17.3241V20.1039C11.2571 21.748 12.4872 23.1092 14.0752 23.3181V26.4513H3.39844V11.8085L8.72707 9.23546C9.77175 11.3709 11.9668 12.8452 14.5 12.8452C17.0331 12.8452 19.2282 11.3709 20.2729 9.23546L25.6016 11.8085V21.5734C25.6016 21.808 25.7917 21.9982 26.0264 21.9982ZM16.7602 6.87168C15.5974 7.97487 13.4776 10.0163 13.3655 10.0712C13.3573 10.068 13.3369 10.0605 13.342 10.0471C13.6359 9.2793 14.0009 8.44923 14.3005 7.73958C14.3847 7.54015 14.3513 7.27082 14.0869 7.11863C13.4729 6.7653 12.8523 6.41946 12.2423 6.05118C12.197 6.02382 12.199 6.01097 12.2395 5.97262C12.9684 5.28194 15.3775 2.94263 15.6268 2.77469C15.6492 2.7795 15.6576 2.79168 15.6576 2.7965C15.3573 3.57077 15.0223 4.34352 14.7004 5.10392C14.5987 5.34408 14.6838 5.59403 14.9122 5.72584C15.5227 6.07831 16.1318 6.43345 16.7431 6.78462C16.8054 6.82036 16.8075 6.82682 16.7602 6.87168ZM17.1666 6.04807C16.6457 5.7485 16.126 5.44643 15.6057 5.14538C15.8896 4.47884 16.1831 3.79162 16.4499 3.10332C16.5523 2.83898 16.5173 2.54196 16.3561 2.30877C16.0288 1.83531 15.4005 1.80761 14.9773 2.21021C13.8635 3.26984 12.7635 4.30563 11.6551 5.35592C11.4412 5.55852 11.3358 5.83368 11.3657 6.11077C11.3954 6.38525 11.5549 6.62863 11.8032 6.77856C12.3325 7.09807 12.8659 7.39906 13.3947 7.70123C13.1314 8.32202 12.8073 9.0746 12.5496 9.74047C12.3861 10.1631 12.5735 10.6322 12.9854 10.8316C13.3089 10.9883 13.6818 10.9579 14.0218 10.6343C15.1049 9.60368 16.2576 8.51969 17.345 7.4881C17.5613 7.28289 17.6663 7.00591 17.6332 6.72815C17.5997 6.44721 17.4297 6.19935 17.1666 6.04807Z" fill="black"/>
</g>
</svg>
