<svg width="30" height="29" viewBox="0 0 30 29" fill="none" xmlns="http://www.w3.org/2000/svg">
<path d="M14.6875 29.0002C22.6956 29.0002 29.1875 22.5083 29.1875 14.5002C29.1875 6.49207 22.6956 0.000198364 14.6875 0.000198364C6.67937 0.000198364 0.1875 6.49207 0.1875 14.5002C0.1875 22.5083 6.67937 29.0002 14.6875 29.0002Z" fill="#006DF0"/>
<path d="M14.6874 1.21691e-05C11.8196 3.12854e-05 9.01619 0.850451 6.63169 2.44373C4.2472 4.03701 2.38871 6.3016 1.29125 8.95111C0.193785 11.6006 -0.093363 14.5161 0.466115 17.3288C1.02559 20.1415 2.40657 22.7251 4.43441 24.753L24.9404 4.24701C23.5955 2.89854 21.9973 1.82916 20.2377 1.10031C18.4782 0.371472 16.5919 -0.00245905 14.6874 1.21691e-05Z" fill="#2488FF"/>
<path d="M14.6875 16.5C15.7921 16.5 16.6875 15.6046 16.6875 14.5C16.6875 13.3954 15.7921 12.5 14.6875 12.5C13.5829 12.5 12.6875 13.3954 12.6875 14.5C12.6875 15.6046 13.5829 16.5 14.6875 16.5Z" fill="#FFCD00"/>
<path d="M20.6875 16.5C21.7921 16.5 22.6875 15.6046 22.6875 14.5C22.6875 13.3954 21.7921 12.5 20.6875 12.5C19.5829 12.5 18.6875 13.3954 18.6875 14.5C18.6875 15.6046 19.5829 16.5 20.6875 16.5Z" fill="#FFCD00"/>
<path d="M8.6875 16.5C9.79207 16.5 10.6875 15.6046 10.6875 14.5C10.6875 13.3954 9.79207 12.5 8.6875 12.5C7.58293 12.5 6.6875 13.3954 6.6875 14.5C6.6875 15.6046 7.58293 16.5 8.6875 16.5Z" fill="#FFCD00"/>
<path d="M13.6878 2.53952C13.5552 2.54469 13.426 2.49697 13.3286 2.40686C13.2312 2.31675 13.1735 2.19162 13.1683 2.05902C13.1632 1.92641 13.2109 1.79718 13.301 1.69975C13.3911 1.60233 13.5162 1.54469 13.6488 1.53952C13.9928 1.51402 14.3428 1.50002 14.6878 1.50002C14.8205 1.50002 14.9476 1.55269 15.0414 1.64646C15.1352 1.74023 15.1878 1.86741 15.1878 2.00002C15.1878 2.13262 15.1352 2.2598 15.0414 2.35357C14.9476 2.44734 14.8205 2.50001 14.6878 2.50001C14.3688 2.50001 14.0458 2.51251 13.7273 2.53802L13.6878 2.53952Z" fill="#F1F2F2"/>
<path d="M2.18752 15C2.05491 15 1.92773 14.9473 1.83396 14.8536C1.74019 14.7598 1.68752 14.6326 1.68752 14.5C1.68307 11.5937 2.6544 8.77001 4.44585 6.48147C6.2373 4.19293 8.74515 2.57203 11.5675 1.87851C11.6963 1.84669 11.8325 1.86734 11.9461 1.93593C12.0597 2.00452 12.1414 2.11543 12.1733 2.24426C12.2051 2.37309 12.1844 2.50929 12.1158 2.62289C12.0473 2.73649 11.9363 2.81818 11.8075 2.85001C9.20246 3.49034 6.88771 4.98652 5.23411 7.09885C3.58051 9.21118 2.68376 11.8174 2.68752 14.5C2.68752 14.6326 2.63484 14.7598 2.54107 14.8536C2.4473 14.9473 2.32012 15 2.18752 15Z" fill="#F1F2F2"/>
</svg>
