<svg width="29" height="29" viewBox="0 0 29 29" fill="none" xmlns="http://www.w3.org/2000/svg">
<path d="M24.3188 23.7731C24.2433 23.0098 23.8343 22.3278 23.1963 21.9022L18.8711 19.019C17.8614 18.3461 16.5114 18.4822 15.6544 19.3376L14.2721 20.7315C13.9576 20.841 12.5032 20.2246 10.6306 18.3511C8.75711 16.4768 8.14896 15.0348 8.2286 14.7477L9.64654 13.3298C10.5028 12.4736 10.6372 11.1203 9.96515 10.1131L7.08197 5.78788C6.65631 5.14982 5.9743 4.74082 5.21101 4.66532C4.44603 4.58896 3.70098 4.85778 3.15915 5.39961L1.02017 7.53858C-1.91115 10.4699 1.90632 16.9116 6.98902 21.9952C10.4444 25.4506 18.0061 31.4077 21.4456 27.964L23.5846 25.8251C24.1264 25.284 24.3943 24.5356 24.3188 23.7731Z" fill="url(#paint0_linear_2520_7382)"/>
<path d="M16.2559 0C15.7863 0 15.4062 0.380002 15.4062 0.849609C15.4062 1.31922 15.7863 1.69922 16.2559 1.69922C22.3459 1.69922 27.3008 6.65414 27.3008 12.7441C27.3008 13.2137 27.6808 13.5938 28.1504 13.5938C28.62 13.5938 29 13.2137 29 12.7441C29 5.71663 23.2834 0 16.2559 0ZM16.2559 3.39844C15.7863 3.39844 15.4062 3.77844 15.4062 4.24805C15.4062 4.71765 15.7863 5.09766 16.2559 5.09766C20.4724 5.09766 23.9023 8.52764 23.9023 12.7441C23.9023 13.2137 24.2823 13.5938 24.752 13.5938C25.2216 13.5938 25.6016 13.2137 25.6016 12.7441C25.6016 7.59092 21.4091 3.39844 16.2559 3.39844ZM16.2559 6.79688C15.7863 6.79688 15.4062 7.17688 15.4062 7.64648C15.4062 8.11609 15.7863 8.49609 16.2559 8.49609C18.5981 8.49609 20.5039 10.4019 20.5039 12.7441C20.5039 13.2137 20.8839 13.5938 21.3535 13.5938C21.8231 13.5938 22.2031 13.2137 22.2031 12.7441C22.2031 9.46516 19.5348 6.79688 16.2559 6.79688ZM16.2559 10.1953C15.7863 10.1953 15.4062 10.5753 15.4062 11.0449C15.4062 11.5145 15.7863 11.8945 16.2559 11.8945C16.7246 11.8945 17.1055 12.2754 17.1055 12.7441C17.1055 13.2137 17.4855 13.5938 17.9551 13.5938C18.4247 13.5938 18.8047 13.2137 18.8047 12.7441C18.8047 11.3387 17.6613 10.1953 16.2559 10.1953Z" fill="url(#paint1_linear_2520_7382)"/>
<defs>
<linearGradient id="paint0_linear_2520_7382" x1="12.1657" y1="29" x2="12.1657" y2="4.65246" gradientUnits="userSpaceOnUse">
<stop stop-color="#5558FF"/>
<stop offset="1" stop-color="#00C0FF"/>
</linearGradient>
<linearGradient id="paint1_linear_2520_7382" x1="22.2031" y1="13.5938" x2="22.2031" y2="0" gradientUnits="userSpaceOnUse">
<stop stop-color="#ADDCFF"/>
<stop offset="0.5028" stop-color="#EAF6FF"/>
<stop offset="1" stop-color="#EAF6FF"/>
</linearGradient>
</defs>
</svg>
