<svg width="28" height="28" viewBox="0 0 28 28" fill="none" xmlns="http://www.w3.org/2000/svg">
<path d="M4.40039 24.0156L5.43805 20.3906H21.7505L22.7882 24.0156H4.40039Z" fill="#376CFB"/>
<path d="M9.51562 17.6719C9.99618 17.6714 10.4569 17.4802 10.7967 17.1404C11.1365 16.8006 11.3276 16.3399 11.3281 15.8594V14.9531H15.8594V15.8594C15.8599 16.3399 16.051 16.8006 16.3908 17.1404C16.7306 17.4802 17.1913 17.6714 17.6719 17.6719H9.51562Z" fill="#376CFB"/>
<path d="M3.625 12.2344V1.8125C3.6254 1.45209 3.76874 1.10656 4.02359 0.851714C4.27844 0.596867 4.62397 0.453521 4.98438 0.453125H22.2031C22.5635 0.453521 22.9091 0.596867 23.1639 0.851714C23.4188 1.10656 23.5621 1.45209 23.5625 1.8125V12.2344H3.625Z" fill="#E6ECFF"/>
<path d="M1.35938 26.7344L3.17188 20.3906H5.4375L3.625 26.7344H1.35938Z" fill="#2946ED"/>
<path d="M23.5625 26.7344L21.75 20.3906H24.0156L25.8281 26.7344H23.5625Z" fill="#2946ED"/>
<path d="M4.98438 14.9531C4.62397 14.9527 4.27844 14.8094 4.02359 14.5545C3.76874 14.2997 3.6254 13.9542 3.625 13.5938V12.2344H23.5625V14.9531H4.98438Z" fill="#4294FF"/>
<path d="M25.375 6.34375H21.75C21.2495 6.34375 20.8438 6.74949 20.8438 7.25V15.4062C20.8438 15.9068 21.2495 16.3125 21.75 16.3125H25.375C25.8755 16.3125 26.2812 15.9068 26.2812 15.4062V7.25C26.2812 6.74949 25.8755 6.34375 25.375 6.34375Z" fill="#376CFB"/>
<path d="M23.5625 10.875C24.063 10.875 24.4688 10.4693 24.4688 9.96875C24.4688 9.46824 24.063 9.0625 23.5625 9.0625C23.062 9.0625 22.6562 9.46824 22.6562 9.96875C22.6562 10.4693 23.062 10.875 23.5625 10.875Z" fill="#2946ED"/>
<path d="M0.453125 17.6719H26.7344V20.3906H0.453125V17.6719Z" fill="#4294FF"/>
<path d="M26.7344 17.2188H17.6719C17.3115 17.2184 16.9659 17.075 16.7111 16.8202C16.4562 16.5653 16.3129 16.2198 16.3125 15.8594V15.4062H19.0312C19.1514 15.4062 19.2667 15.3585 19.3517 15.2735C19.4366 15.1886 19.4844 15.0733 19.4844 14.9531C19.4844 14.8329 19.4366 14.7177 19.3517 14.6327C19.2667 14.5477 19.1514 14.5 19.0312 14.5H4.98438C4.74411 14.4997 4.51376 14.4042 4.34386 14.2343C4.17397 14.0644 4.0784 13.834 4.07812 13.5938V12.6875H19.0312C19.1514 12.6875 19.2667 12.6398 19.3517 12.5548C19.4366 12.4698 19.4844 12.3546 19.4844 12.2344C19.4844 12.1142 19.4366 11.9989 19.3517 11.914C19.2667 11.829 19.1514 11.7812 19.0312 11.7812H4.07812V1.8125C4.0784 1.57223 4.17397 1.34188 4.34386 1.17199C4.51376 1.00209 4.74411 0.906526 4.98438 0.90625H22.2031C22.4434 0.906526 22.6737 1.00209 22.8436 1.17199C23.0135 1.34188 23.1091 1.57223 23.1094 1.8125V3.625C23.1094 3.74518 23.1571 3.86043 23.2421 3.94541C23.3271 4.03039 23.4423 4.07812 23.5625 4.07812C23.6827 4.07812 23.7979 4.03039 23.8829 3.94541C23.9679 3.86043 24.0156 3.74518 24.0156 3.625V1.8125C24.0151 1.33195 23.824 0.871226 23.4842 0.531425C23.1444 0.191625 22.6837 0.000503785 22.2031 0H4.98438C4.50382 0.000503785 4.0431 0.191625 3.7033 0.531425C3.3635 0.871226 3.17238 1.33195 3.17188 1.8125V13.5938C3.17238 14.0743 3.3635 14.535 3.7033 14.8748C4.0431 15.2146 4.50382 15.4057 4.98438 15.4062H10.875V15.8594C10.8746 16.2198 10.7313 16.5653 10.4764 16.8202C10.2216 17.075 9.87603 17.2184 9.51562 17.2188H0.453125C0.332949 17.2188 0.217695 17.2665 0.132717 17.3515C0.0477398 17.4364 0 17.5517 0 17.6719V20.3906C0 20.5108 0.0477398 20.6261 0.132717 20.711C0.217695 20.796 0.332949 20.8438 0.453125 20.8438H2.57094L0.923514 26.6098C0.890465 26.7254 0.904692 26.8494 0.963063 26.9545C1.02143 27.0596 1.11917 27.1372 1.23477 27.1703C1.35036 27.2033 1.47435 27.1891 1.57946 27.1307C1.68457 27.0724 1.76219 26.9746 1.79524 26.859L3.51349 20.8438H4.83661L3.18914 26.6098C3.17278 26.667 3.16785 26.7269 3.17463 26.7861C3.18142 26.8452 3.19979 26.9025 3.22869 26.9545C3.25759 27.0066 3.29646 27.0524 3.34308 27.0894C3.3897 27.1264 3.44315 27.1539 3.50039 27.1703C3.55763 27.1866 3.61753 27.1916 3.67667 27.1848C3.73582 27.178 3.79304 27.1596 3.84509 27.1307C3.89713 27.1018 3.94297 27.063 3.98 27.0163C4.01702 26.9697 4.0445 26.9163 4.06086 26.859L4.74381 24.4688H22.4437L23.1266 26.8589C23.1597 26.9745 23.2373 27.0723 23.3424 27.1306C23.4475 27.189 23.5715 27.2032 23.6871 27.1702C23.8027 27.1371 23.9004 27.0595 23.9588 26.9544C24.0172 26.8493 24.0314 26.7253 23.9984 26.6097L22.3509 20.8438H23.6741L25.3923 26.8589C25.4194 26.9535 25.4766 27.0368 25.5551 27.0961C25.6336 27.1554 25.7293 27.1875 25.8277 27.1877C25.8979 27.1876 25.967 27.1712 26.0298 27.1399C26.0925 27.1086 26.1472 27.0631 26.1894 27.0072C26.2317 26.9512 26.2604 26.8862 26.2734 26.8172C26.2863 26.7483 26.2831 26.6773 26.264 26.6098L24.6166 20.8438H26.7344C26.8546 20.8438 26.9698 20.796 27.0548 20.711C27.1398 20.6261 27.1875 20.5108 27.1875 20.3906V17.6719C27.1875 17.5517 27.1398 17.4364 27.0548 17.3515C26.9698 17.2665 26.8546 17.2188 26.7344 17.2188ZM11.7812 15.8594V15.4062H15.4062V15.8594C15.4057 16.3498 15.5651 16.8271 15.8603 17.2188H11.3272C11.6224 16.8271 11.7818 16.3498 11.7812 15.8594ZM5.00273 23.5625L5.77952 20.8438H21.4078L22.185 23.5625H5.00273ZM26.2812 19.9375H0.90625V18.125H26.2812V19.9375Z" fill="#232328"/>
<path d="M14.5 21.75H12.6875C12.5673 21.75 12.4521 21.7977 12.3671 21.8827C12.2821 21.9677 12.2344 22.0829 12.2344 22.2031C12.2344 22.3233 12.2821 22.4386 12.3671 22.5235C12.4521 22.6085 12.5673 22.6562 12.6875 22.6562H14.5C14.6202 22.6562 14.7354 22.6085 14.8204 22.5235C14.9054 22.4386 14.9531 22.3233 14.9531 22.2031C14.9531 22.0829 14.9054 21.9677 14.8204 21.8827C14.7354 21.7977 14.6202 21.75 14.5 21.75Z" fill="#232328"/>
<path d="M20.3906 7.25V15.4062C20.391 15.7667 20.5344 16.1122 20.7892 16.367C21.0441 16.6219 21.3896 16.7652 21.75 16.7656H25.375C25.7354 16.7652 26.0809 16.6219 26.3358 16.367C26.5906 16.1122 26.734 15.7667 26.7344 15.4062V7.25C26.734 6.88959 26.5906 6.54406 26.3358 6.28921C26.0809 6.03437 25.7354 5.89102 25.375 5.89062H21.75C21.3896 5.89102 21.0441 6.03437 20.7892 6.28921C20.5344 6.54406 20.391 6.88959 20.3906 7.25ZM25.8281 7.25V15.4062C25.828 15.5264 25.7802 15.6416 25.6953 15.7265C25.6103 15.8115 25.4951 15.8593 25.375 15.8594H21.75C21.6299 15.8593 21.5147 15.8115 21.4297 15.7265C21.3448 15.6416 21.297 15.5264 21.2969 15.4062V7.25C21.297 7.12986 21.3448 7.01467 21.4297 6.92971C21.5147 6.84476 21.6299 6.79698 21.75 6.79688H25.375C25.4951 6.79698 25.6103 6.84476 25.6953 6.92971C25.7802 7.01467 25.828 7.12986 25.8281 7.25Z" fill="#232328"/>
<path d="M19.4844 7.70312C19.6046 7.70312 19.7198 7.65539 19.8048 7.57041C19.8898 7.48543 19.9375 7.37018 19.9375 7.25C19.938 6.76945 20.1291 6.30873 20.4689 5.96893C20.8087 5.62912 21.2694 5.438 21.75 5.4375C21.8702 5.4375 21.9854 5.38976 22.0704 5.30478C22.1554 5.21981 22.2031 5.10455 22.2031 4.98438C22.2031 4.8642 22.1554 4.74894 22.0704 4.66397C21.9854 4.57899 21.8702 4.53125 21.75 4.53125C21.0292 4.53204 20.3381 4.81873 19.8284 5.32843C19.3187 5.83812 19.032 6.52919 19.0312 7.25C19.0312 7.37018 19.079 7.48543 19.164 7.57041C19.2489 7.65539 19.3642 7.70312 19.4844 7.70312Z" fill="#232328"/>
<path d="M18.125 7.70312C18.2452 7.70312 18.3604 7.65539 18.4454 7.57041C18.5304 7.48543 18.5781 7.37018 18.5781 7.25C18.5791 6.40906 18.9136 5.60285 19.5082 5.00822C20.1028 4.41359 20.9091 4.0791 21.75 4.07812C21.8702 4.07812 21.9854 4.03039 22.0704 3.94541C22.1554 3.86043 22.2031 3.74518 22.2031 3.625C22.2031 3.50482 22.1554 3.38957 22.0704 3.30459C21.9854 3.21961 21.8702 3.17188 21.75 3.17188C20.6688 3.17307 19.6322 3.60312 18.8677 4.36766C18.1031 5.13219 17.6731 6.16878 17.6719 7.25C17.6719 7.37018 17.7196 7.48543 17.8046 7.57041C17.8896 7.65539 18.0048 7.70312 18.125 7.70312Z" fill="#232328"/>
<path d="M22.2031 2.26562C22.2031 2.14545 22.1554 2.03019 22.0704 1.94522C21.9854 1.86024 21.8702 1.8125 21.75 1.8125C20.3084 1.81411 18.9263 2.3875 17.9069 3.40688C16.8875 4.42626 16.3141 5.80838 16.3125 7.25C16.3125 7.37018 16.3602 7.48543 16.4452 7.57041C16.5302 7.65539 16.6454 7.70312 16.7656 7.70312C16.8858 7.70312 17.0011 7.65539 17.086 7.57041C17.171 7.48543 17.2188 7.37018 17.2188 7.25C17.2201 6.04866 17.698 4.89691 18.5474 4.04743C19.3969 3.19795 20.5487 2.72012 21.75 2.71875C21.8702 2.71875 21.9854 2.67101 22.0704 2.58603C22.1554 2.50106 22.2031 2.3858 22.2031 2.26562Z" fill="#232328"/>
<path d="M22.2031 8.15625C22.4534 8.15625 22.6562 7.95338 22.6562 7.70312C22.6562 7.45287 22.4534 7.25 22.2031 7.25C21.9529 7.25 21.75 7.45287 21.75 7.70312C21.75 7.95338 21.9529 8.15625 22.2031 8.15625Z" fill="#232328"/>
<path d="M24.9219 8.15625C25.1721 8.15625 25.375 7.95338 25.375 7.70312C25.375 7.45287 25.1721 7.25 24.9219 7.25C24.6716 7.25 24.4688 7.45287 24.4688 7.70312C24.4688 7.95338 24.6716 8.15625 24.9219 8.15625Z" fill="#232328"/>
<path d="M23.5625 12.6875C23.8128 12.6875 24.0156 12.4846 24.0156 12.2344C24.0156 11.9841 23.8128 11.7812 23.5625 11.7812C23.3122 11.7812 23.1094 11.9841 23.1094 12.2344C23.1094 12.4846 23.3122 12.6875 23.5625 12.6875Z" fill="#232328"/>
<path d="M22.2031 12.6875C22.4534 12.6875 22.6562 12.4846 22.6562 12.2344C22.6562 11.9841 22.4534 11.7812 22.2031 11.7812C21.9529 11.7812 21.75 11.9841 21.75 12.2344C21.75 12.4846 21.9529 12.6875 22.2031 12.6875Z" fill="#232328"/>
<path d="M24.9219 12.6875C25.1721 12.6875 25.375 12.4846 25.375 12.2344C25.375 11.9841 25.1721 11.7812 24.9219 11.7812C24.6716 11.7812 24.4688 11.9841 24.4688 12.2344C24.4688 12.4846 24.6716 12.6875 24.9219 12.6875Z" fill="#232328"/>
<path d="M23.5625 14.0469C23.8128 14.0469 24.0156 13.844 24.0156 13.5938C24.0156 13.3435 23.8128 13.1406 23.5625 13.1406C23.3122 13.1406 23.1094 13.3435 23.1094 13.5938C23.1094 13.844 23.3122 14.0469 23.5625 14.0469Z" fill="#232328"/>
<path d="M22.2031 14.0469C22.4534 14.0469 22.6562 13.844 22.6562 13.5938C22.6562 13.3435 22.4534 13.1406 22.2031 13.1406C21.9529 13.1406 21.75 13.3435 21.75 13.5938C21.75 13.844 21.9529 14.0469 22.2031 14.0469Z" fill="#232328"/>
<path d="M24.9219 14.0469C25.1721 14.0469 25.375 13.844 25.375 13.5938C25.375 13.3435 25.1721 13.1406 24.9219 13.1406C24.6716 13.1406 24.4688 13.3435 24.4688 13.5938C24.4688 13.844 24.6716 14.0469 24.9219 14.0469Z" fill="#232328"/>
<path d="M23.5625 15.4062C23.8128 15.4062 24.0156 15.2034 24.0156 14.9531C24.0156 14.7029 23.8128 14.5 23.5625 14.5C23.3122 14.5 23.1094 14.7029 23.1094 14.9531C23.1094 15.2034 23.3122 15.4062 23.5625 15.4062Z" fill="#232328"/>
<path d="M22.2031 15.4062C22.4534 15.4062 22.6562 15.2034 22.6562 14.9531C22.6562 14.7029 22.4534 14.5 22.2031 14.5C21.9529 14.5 21.75 14.7029 21.75 14.9531C21.75 15.2034 21.9529 15.4062 22.2031 15.4062Z" fill="#232328"/>
<path d="M24.9219 15.4062C25.1721 15.4062 25.375 15.2034 25.375 14.9531C25.375 14.7029 25.1721 14.5 24.9219 14.5C24.6716 14.5 24.4688 14.7029 24.4688 14.9531C24.4688 15.2034 24.6716 15.4062 24.9219 15.4062Z" fill="#232328"/>
<path d="M22.2031 9.96875C22.2031 10.2376 22.2829 10.5004 22.4322 10.724C22.5816 10.9475 22.7939 11.1218 23.0423 11.2246C23.2907 11.3275 23.564 11.3545 23.8277 11.302C24.0914 11.2496 24.3336 11.1201 24.5237 10.93C24.7138 10.7399 24.8433 10.4976 24.8958 10.234C24.9482 9.97026 24.9213 9.69693 24.8184 9.44854C24.7155 9.20015 24.5413 8.98784 24.3177 8.83847C24.0942 8.6891 23.8314 8.60938 23.5625 8.60938C23.2021 8.60977 22.8566 8.75312 22.6017 9.00796C22.3469 9.26281 22.2035 9.60834 22.2031 9.96875ZM23.5625 9.51562C23.6521 9.51562 23.7397 9.5422 23.8142 9.59199C23.8888 9.64178 23.9468 9.71255 23.9811 9.79535C24.0154 9.87814 24.0244 9.96925 24.0069 10.0572C23.9894 10.145 23.9463 10.2258 23.8829 10.2892C23.8195 10.3525 23.7388 10.3957 23.6509 10.4132C23.563 10.4307 23.4719 10.4217 23.3891 10.3874C23.3063 10.3531 23.2355 10.295 23.1857 10.2205C23.1359 10.146 23.1094 10.0584 23.1094 9.96875C23.1095 9.84861 23.1573 9.73342 23.2422 9.64846C23.3272 9.56351 23.4424 9.51573 23.5625 9.51562Z" fill="#232328"/>
<path d="M6.79688 13.1406C6.6767 13.1406 6.56144 13.1884 6.47647 13.2733C6.39149 13.3583 6.34375 13.4736 6.34375 13.5938C6.34375 13.7139 6.39149 13.8292 6.47647 13.9142C6.56144 13.9991 6.6767 14.0469 6.79688 14.0469H8.60938C8.72955 14.0469 8.84481 13.9991 8.92978 13.9142C9.01476 13.8292 9.0625 13.7139 9.0625 13.5938C9.0625 13.4736 9.01476 13.3583 8.92978 13.2733C8.84481 13.1884 8.72955 13.1406 8.60938 13.1406H6.79688Z" fill="#232328"/>
<path d="M4.98438 13.1406C4.8642 13.1406 4.74894 13.1884 4.66397 13.2733C4.57899 13.3583 4.53125 13.4736 4.53125 13.5938C4.53125 13.7139 4.57899 13.8292 4.66397 13.9142C4.74894 13.9991 4.8642 14.0469 4.98438 14.0469H5.4375C5.55768 14.0469 5.67293 13.9991 5.75791 13.9142C5.84289 13.8292 5.89062 13.7139 5.89062 13.5938C5.89062 13.4736 5.84289 13.3583 5.75791 13.2733C5.67293 13.1884 5.55768 13.1406 5.4375 13.1406H4.98438Z" fill="#232328"/>
</svg>
