<svg width="29" height="29" viewBox="0 0 29 29" fill="none" xmlns="http://www.w3.org/2000/svg">
<g clip-path="url(#clip0_2520_7412)">
<path fill-rule="evenodd" clip-rule="evenodd" d="M2.52727 12.5685C7.0342 7.32011 14.6544 6.57449 20.0813 10.1407C20.6753 9.96276 21.3048 9.86652 21.9584 9.86652C22.4994 9.86652 23.0262 9.93223 23.5286 10.0572C17.2026 3.94954 6.71626 4.27036 0.833357 11.1206C0.433552 11.5854 0.489751 12.2926 0.955489 12.6904C1.42101 13.088 2.12747 13.0335 2.52727 12.5685Z" fill="#CBE558"/>
<path fill-rule="evenodd" clip-rule="evenodd" d="M17.6995 11.4589C13.395 9.25564 7.87163 10.0847 4.46146 14.0548C4.0455 14.5392 4.10325 15.2817 4.58978 15.6952C5.07477 16.1105 5.81641 16.053 6.23237 15.5687C8.79824 12.5813 12.9005 11.8613 16.2175 13.3333C16.5934 12.6198 17.0974 11.9848 17.6995 11.4589Z" fill="#CBE558"/>
<path fill-rule="evenodd" clip-rule="evenodd" d="M15.5407 15.4467C13.0423 14.236 9.88258 14.7427 7.92051 17.0263C7.50455 17.5106 7.56252 18.2514 8.04728 18.6666C8.53227 19.0804 9.27236 19.0226 9.68832 18.5383C11.3371 16.6174 14.3349 16.6831 15.9066 18.6441C15.6323 17.9274 15.4812 17.1482 15.4812 16.3335C15.4812 16.0337 15.5022 15.737 15.5407 15.4467Z" fill="#CBE558"/>
<path fill-rule="evenodd" clip-rule="evenodd" d="M16.2172 13.3333C15.877 13.9812 15.6442 14.6932 15.5398 15.4467C15.5013 15.737 15.4805 16.0337 15.4805 16.3335C15.4805 17.1482 15.6314 17.9274 15.9059 18.6443C16.8372 21.0752 19.1942 22.8021 21.9574 22.8021C25.5331 22.8021 28.4329 19.9061 28.4329 16.3335C28.4329 13.3028 26.3456 10.7597 23.5277 10.0575C23.0252 9.93223 22.4984 9.86652 21.9574 9.86652C21.3041 9.86652 20.6746 9.96276 20.0805 10.1406C19.1909 10.4101 18.3833 10.8639 17.6994 11.4589C17.0972 11.9848 16.5932 12.6198 16.2172 13.3333Z" fill="#BDD9FF"/>
<path fill-rule="evenodd" clip-rule="evenodd" d="M23.8628 14.8277H19.5679C19.2884 14.8277 19.0605 15.0556 19.0605 15.3346V18.7821C19.0605 19.0596 19.2884 19.2888 19.5679 19.2888H24.3478C24.6271 19.2888 24.8552 19.0596 24.8552 18.7821V15.3346C24.8552 15.0556 24.6271 14.8277 24.3478 14.8277H23.8628Z" fill="#F46370"/>
<path fill-rule="evenodd" clip-rule="evenodd" d="M12.7253 20.0616C11.8359 20.0616 11.1133 20.7816 11.1133 21.6699C11.1133 22.5583 11.8359 23.28 12.7253 23.28C13.615 23.28 14.3358 22.5583 14.3358 21.6699C14.3358 20.7816 13.615 20.0616 12.7253 20.0616Z" fill="#CBE558"/>
<path d="M12.7247 19.4961C11.5239 19.4961 10.5469 20.4712 10.5469 21.6699C10.5469 22.8696 11.5239 23.8457 12.7247 23.8457C13.9243 23.8457 14.9005 22.8696 14.9005 21.6699C14.9005 20.4712 13.9243 19.4961 12.7247 19.4961ZM12.7247 22.7143C12.1476 22.7143 11.6781 22.2459 11.6781 21.6699C11.6781 21.0951 12.1476 20.6274 12.7247 20.6274C13.3008 20.6274 13.7694 21.0951 13.7694 21.6699C13.7694 22.2459 13.3008 22.7143 12.7247 22.7143Z" fill="black"/>
<path d="M23.8139 9.54924C21.5678 7.4199 18.7572 5.99459 15.6747 5.42486C15.3676 5.368 15.0727 5.57111 15.016 5.87843C14.9592 6.18575 15.1623 6.48068 15.4694 6.53754C17.785 6.96544 19.9351 7.91219 21.7762 9.30321C21.2244 9.31714 20.6881 9.39503 20.1743 9.52933C17.4356 7.802 14.1492 7.07718 10.8888 7.48804C7.45779 7.92037 4.33569 9.59371 2.09771 12.1996C1.90013 12.4295 1.5521 12.4567 1.32178 12.2603C1.21137 12.1656 1.14411 12.0328 1.13283 11.8859C1.12154 11.7396 1.16712 11.5987 1.2616 11.489C3.66507 8.68923 7.01949 6.88535 10.7073 6.40921C11.0171 6.36917 11.2357 6.08552 11.1956 5.77577C11.1558 5.46579 10.8724 5.24741 10.5624 5.28702C6.5969 5.799 2.98914 7.73983 0.403796 10.7515C0.112185 11.0907 -0.0294174 11.5246 0.00509809 11.9726C0.0398348 12.4218 0.246485 12.8293 0.587437 13.1205C0.902944 13.39 1.29124 13.5218 1.67755 13.5218C2.1517 13.5218 2.62319 13.3234 2.95551 12.9371C6.89824 8.34584 13.5405 7.19422 18.8121 10.0426C18.3908 10.2533 17.9936 10.5048 17.6257 10.7925C15.4685 9.77713 13.0042 9.45432 10.6436 9.88532C8.04721 10.3592 5.761 11.6735 4.03213 13.6862C3.73211 14.0356 3.58697 14.483 3.62325 14.946C3.65954 15.4089 3.87283 15.828 4.22196 16.1249C4.54721 16.4037 4.94745 16.54 5.34593 16.54C5.83379 16.54 6.31922 16.3355 6.66128 15.9373C8.85191 13.3864 12.3238 12.4983 15.4541 13.6356C15.3169 13.9641 15.2041 14.3053 15.1178 14.6566C12.4309 13.686 9.38159 14.4569 7.49076 16.6577C7.1914 17.0061 7.04604 17.4526 7.08144 17.9144C7.11684 18.377 7.32902 18.7967 7.67949 19.097C8.00429 19.374 8.40321 19.5096 8.8008 19.5096C9.28911 19.5096 9.77476 19.305 10.1166 18.9069C10.7896 18.1228 11.7716 17.6805 12.8104 17.7011C13.8275 17.7188 14.7733 18.1717 15.4185 18.945C16.4586 21.5343 18.9975 23.3678 21.9574 23.3678C25.8408 23.3678 29.0001 20.2123 29.0001 16.3335C29.0001 13.097 26.7993 10.3648 23.8139 9.54924ZM10.8277 12.2251C8.85722 12.6384 7.11994 13.6672 5.80326 15.2C5.59152 15.447 5.20411 15.4768 4.95608 15.2644C4.83638 15.1627 4.76359 15.0182 4.75098 14.8575C4.73837 14.6969 4.78793 14.5429 4.89037 14.4237C7.83879 10.9909 12.6086 9.8986 16.727 11.6297C16.4489 11.9377 16.198 12.2704 15.9771 12.6238C14.3483 12.0089 12.5391 11.8662 10.8277 12.2251ZM12.8298 16.57C11.451 16.5459 10.1516 17.1294 9.25857 18.1697C9.04705 18.4162 8.66008 18.4467 8.41449 18.237C8.29435 18.1341 8.22156 17.9889 8.20917 17.8281C8.197 17.6677 8.24656 17.5139 8.34878 17.3949C9.97875 15.4979 12.638 14.8702 14.9353 15.7977C14.922 15.9747 14.9151 16.1532 14.9151 16.3335C14.9151 16.6028 14.9308 16.8685 14.9605 17.1298C14.3158 16.7789 13.5874 16.5831 12.8298 16.57ZM21.9576 22.2363C18.6979 22.2363 16.0462 19.5884 16.0462 16.3335C16.0462 13.0796 18.6979 10.4323 21.9576 10.4323C25.2171 10.4323 27.8691 13.0796 27.8691 16.3335C27.8691 19.5884 25.2171 22.2363 21.9576 22.2363Z" fill="black"/>
<path d="M24.4275 14.2661V14.1462C24.4275 12.7884 23.321 11.6837 21.961 11.6837C20.6009 11.6837 19.4944 12.7884 19.4944 14.1462V14.2657C18.9366 14.3033 18.4941 14.7677 18.4941 15.3346V18.7821C18.4941 19.3735 18.9754 19.8546 19.567 19.8546H24.347C24.9386 19.8546 25.4198 19.3735 25.4198 18.7821V15.3346C25.4198 14.7704 24.9815 14.3077 24.4275 14.2661ZM21.961 12.8152C22.6973 12.8152 23.2964 13.4123 23.2964 14.1462V14.2622H20.6255V14.1462C20.6255 13.4123 21.2246 12.8152 21.961 12.8152ZM24.2888 18.7231H19.6252V15.3934H24.2888V18.7231Z" fill="black"/>
<path d="M13.0206 6.28553H13.0303C13.3425 6.28553 13.5959 6.0322 13.5959 5.71979C13.5959 5.4076 13.3425 5.15427 13.0303 5.15427H13.0206C12.7084 5.15427 12.4551 5.4076 12.4551 5.71979C12.4551 6.0322 12.7082 6.28553 13.0206 6.28553Z" fill="black"/>
</g>
<defs>
<clipPath id="clip0_2520_7412">
<rect width="29" height="29" fill="white"/>
</clipPath>
</defs>
</svg>
